G04*
G04 #@! TF.GenerationSoftware,Altium Limited,Altium Designer,20.2.7 (254)*
G04*
G04 Layer_Physical_Order=1*
G04 Layer_Color=255*
%FSLAX43Y43*%
%MOMM*%
G71*
G04*
G04 #@! TF.SameCoordinates,9B313DD2-682E-43CD-81FA-E857884732BC*
G04*
G04*
G04 #@! TF.FilePolarity,Positive*
G04*
G01*
G75*
%ADD10R,0.550X1.500*%
%ADD11R,1.400X0.350*%
%ADD12R,1.620X0.580*%
%ADD13R,1.500X0.550*%
%ADD14R,0.450X0.850*%
%ADD15O,0.450X0.850*%
%ADD16R,1.300X0.800*%
%ADD17R,0.800X1.300*%
%ADD18R,0.600X0.900*%
%ADD19R,0.900X0.700*%
%ADD20O,1.000X0.800*%
%ADD21R,0.580X1.620*%
%ADD22R,0.700X0.900*%
%ADD23O,0.800X1.000*%
%ADD24C,0.200*%
%ADD25C,0.300*%
%ADD26C,5.600*%
%ADD27O,1.200X2.500*%
%ADD28R,1.200X2.500*%
%ADD29C,1.300*%
%ADD30R,2.500X1.200*%
%ADD31O,2.500X1.200*%
%ADD32C,0.800*%
G36*
X-0Y3000D02*
Y0D01*
X63838D01*
Y3885D01*
X63885Y4000D01*
X64000Y4047D01*
Y5797D01*
X63873Y5902D01*
X63764Y5880D01*
X63549Y5923D01*
X63445Y5992D01*
X63318Y5924D01*
Y4112D01*
X63460Y4018D01*
X63582Y3836D01*
X63624Y3621D01*
X63582Y3407D01*
X63460Y3225D01*
X63278Y3103D01*
X63064Y3060D01*
X62849Y3103D01*
X62667Y3225D01*
X62545Y3407D01*
X62503Y3621D01*
X62545Y3836D01*
X62667Y4018D01*
X62809Y4112D01*
Y5263D01*
X62691Y5312D01*
X62299Y4920D01*
X62217Y4865D01*
X62119Y4845D01*
X60500D01*
Y4035D01*
X58700D01*
Y4205D01*
X57666D01*
X57180Y3720D01*
X57098Y3665D01*
X57000Y3645D01*
X51232D01*
X51135Y3665D01*
X51052Y3720D01*
X50935Y3837D01*
X50880Y3920D01*
X50860Y4017D01*
Y4644D01*
X50810Y4695D01*
X49800D01*
Y4400D01*
X49255D01*
Y4026D01*
X49235Y3929D01*
X49180Y3846D01*
X49063Y3729D01*
X48980Y3674D01*
X48883Y3654D01*
X48141D01*
X48043Y3674D01*
X47961Y3729D01*
X46077Y5613D01*
X45950Y5560D01*
Y5100D01*
X45150D01*
Y5650D01*
X45860D01*
X45913Y5777D01*
X45357Y6333D01*
X45302Y6415D01*
X45285Y6500D01*
X44200D01*
Y7600D01*
X45800D01*
Y6610D01*
X48246Y4164D01*
X48745D01*
Y4400D01*
X48200D01*
Y5500D01*
X49800D01*
Y5205D01*
X50915D01*
X51013Y5185D01*
X51095Y5130D01*
X51295Y4930D01*
X51351Y4848D01*
X51370Y4750D01*
Y4155D01*
X52719D01*
X52730Y4280D01*
X52647Y4404D01*
X52618Y4550D01*
Y4950D01*
X52647Y5096D01*
X52730Y5220D01*
X52854Y5303D01*
X53000Y5332D01*
X53146Y5303D01*
X53270Y5220D01*
X53353Y5096D01*
X53382Y4950D01*
Y4550D01*
X53353Y4404D01*
X53270Y4280D01*
X53281Y4155D01*
X56894D01*
X57380Y4640D01*
X57462Y4695D01*
X57560Y4715D01*
X58700D01*
Y4845D01*
X57714D01*
X57616Y4865D01*
X57533Y4920D01*
X56820Y5633D01*
X56764Y5716D01*
X56745Y5814D01*
Y8400D01*
X56200D01*
Y9500D01*
X57800D01*
Y8400D01*
X57255D01*
Y5919D01*
X57819Y5355D01*
X58550D01*
Y5580D01*
X59600D01*
X60650D01*
Y5355D01*
X62013D01*
X62445Y5787D01*
Y9881D01*
X62464Y9978D01*
X62520Y10061D01*
X63449Y10990D01*
X63532Y11045D01*
X63629Y11065D01*
X64000D01*
Y14709D01*
X63408Y15301D01*
X63353Y15384D01*
X63334Y15481D01*
Y17409D01*
X63080Y17663D01*
X61600D01*
Y17200D01*
X60500D01*
Y18800D01*
X61600D01*
Y18173D01*
X63185D01*
X63283Y18154D01*
X63366Y18098D01*
X63769Y17695D01*
X63824Y17613D01*
X63843Y17515D01*
Y15669D01*
X63873Y15649D01*
X64000Y15716D01*
Y21049D01*
X63909Y21138D01*
X57737Y21019D01*
X57734Y21020D01*
X57732Y21019D01*
X57686Y21029D01*
X57639Y21037D01*
X57637Y21038D01*
X57634Y21039D01*
X57595Y21065D01*
X57555Y21091D01*
X57554Y21093D01*
X57552Y21094D01*
X57380Y21265D01*
X57263Y21217D01*
Y20757D01*
X57558Y20462D01*
X59904D01*
X59951Y20453D01*
X59999Y20444D01*
X60000Y20443D01*
X60001Y20443D01*
X60042Y20416D01*
X60083Y20389D01*
X60083Y20388D01*
X60084Y20388D01*
X60111Y20347D01*
X60138Y20307D01*
X60139Y20306D01*
X60139Y20305D01*
X60149Y20257D01*
X60158Y20209D01*
X60183Y16859D01*
X61830Y15212D01*
X61885Y15130D01*
X61905Y15032D01*
Y7884D01*
X61885Y7786D01*
X61830Y7703D01*
X60947Y6820D01*
X60864Y6765D01*
X60766Y6745D01*
X60500D01*
Y6575D01*
X58700D01*
Y6958D01*
X58573Y7026D01*
X58518Y6989D01*
X58303Y6947D01*
X58089Y6989D01*
X57907Y7111D01*
X57785Y7293D01*
X57743Y7507D01*
X57785Y7722D01*
X57907Y7904D01*
X58089Y8025D01*
X58303Y8068D01*
X58518Y8025D01*
X58560Y7998D01*
X58700Y8138D01*
Y8695D01*
X60500D01*
Y7845D01*
X59128D01*
X58852Y7569D01*
X58864Y7507D01*
X58932Y7425D01*
X60500D01*
Y7255D01*
X60661D01*
X61395Y7989D01*
Y9468D01*
X61283Y9528D01*
X61215Y9482D01*
X61000Y9439D01*
X60785Y9482D01*
X60762Y9498D01*
X60650Y9438D01*
Y8965D01*
X59750D01*
Y9540D01*
X59600D01*
D01*
X59750D01*
Y10115D01*
X60462D01*
X60482Y10215D01*
X60527Y10282D01*
X60425Y10385D01*
X58700D01*
Y10555D01*
X58323D01*
X58225Y10575D01*
X58143Y10630D01*
X57977Y10795D01*
X57800D01*
Y10500D01*
X56200D01*
Y11600D01*
X57800D01*
Y11305D01*
X58083D01*
X58180Y11285D01*
X58263Y11230D01*
X58428Y11065D01*
X58700D01*
Y11235D01*
X60500D01*
Y11017D01*
X60540Y10990D01*
X60975Y10556D01*
X61000Y10561D01*
X61215Y10518D01*
X61283Y10472D01*
X61395Y10532D01*
Y14926D01*
X59749Y16573D01*
X59722Y16613D01*
X59694Y16654D01*
X59694Y16655D01*
X59694Y16655D01*
X59684Y16703D01*
X59674Y16751D01*
X59651Y19952D01*
X57452D01*
X57355Y19972D01*
X57272Y20027D01*
X56828Y20472D01*
X56772Y20554D01*
X56753Y20652D01*
Y40172D01*
X56636Y40221D01*
X55822Y39407D01*
X55739Y39352D01*
X55642Y39333D01*
X54652D01*
X54604Y39215D01*
X55461Y38358D01*
X55516Y38275D01*
X55536Y38178D01*
Y26781D01*
X55516Y26683D01*
X55461Y26601D01*
X52578Y23717D01*
X52626Y23600D01*
X53800D01*
Y22500D01*
X52200D01*
Y22795D01*
X49938D01*
X49815Y22672D01*
X49864Y22555D01*
X49983D01*
X50080Y22535D01*
X50163Y22480D01*
X50280Y22363D01*
X50335Y22280D01*
X50355Y22183D01*
Y22030D01*
X50415Y22018D01*
X50597Y21897D01*
X50718Y21715D01*
X50761Y21500D01*
X50718Y21285D01*
X50597Y21103D01*
X50415Y20982D01*
X50200Y20939D01*
X49985Y20982D01*
X49821Y21092D01*
X49694Y21057D01*
Y20034D01*
X49821Y19981D01*
X51620Y21780D01*
X51702Y21835D01*
X51800Y21855D01*
X53779D01*
X53843Y21950D01*
X54025Y22072D01*
X54239Y22114D01*
X54454Y22072D01*
X54636Y21950D01*
X54757Y21768D01*
X54800Y21554D01*
X54767Y21387D01*
X57864Y18290D01*
X58400D01*
Y18800D01*
X59500D01*
Y17200D01*
X58400D01*
X58355Y17092D01*
Y14726D01*
X58783Y14298D01*
X58950Y14331D01*
X59165Y14288D01*
X59347Y14167D01*
X59468Y13985D01*
X59511Y13770D01*
X59468Y13555D01*
X59347Y13373D01*
X59165Y13252D01*
X58950Y13209D01*
X58735Y13252D01*
X58553Y13373D01*
X58432Y13555D01*
X58389Y13770D01*
X58422Y13937D01*
X57920Y14440D01*
X57864Y14522D01*
X57845Y14620D01*
Y17780D01*
X57758D01*
X57660Y17800D01*
X57578Y17855D01*
X54406Y21026D01*
X54239Y20993D01*
X54077Y21025D01*
X53950Y20944D01*
Y20250D01*
X53150D01*
Y20950D01*
X53000D01*
Y21100D01*
X52050D01*
Y21345D01*
X51906D01*
X50176Y19616D01*
Y12975D01*
X50167Y12930D01*
X50159Y12884D01*
X50158Y12881D01*
X50157Y12878D01*
X50131Y12839D01*
X50107Y12800D01*
X50104Y12798D01*
X50102Y12795D01*
X50063Y12769D01*
X50025Y12743D01*
X50022Y12742D01*
X50019Y12740D01*
X49974Y12731D01*
X49928Y12721D01*
X49800Y12717D01*
Y12400D01*
X49255D01*
Y7600D01*
X49800D01*
Y6918D01*
X49915Y6868D01*
X49997Y6934D01*
Y10583D01*
X50016Y10680D01*
X50071Y10763D01*
X50189Y10880D01*
X50271Y10935D01*
X50369Y10955D01*
X51851D01*
Y11160D01*
X51870Y11257D01*
X51926Y11340D01*
X52634Y12048D01*
X52625Y12175D01*
X52625D01*
Y13325D01*
X53375D01*
Y12175D01*
X53255D01*
Y12054D01*
X53235Y11956D01*
X53180Y11874D01*
X52361Y11054D01*
Y10700D01*
Y7999D01*
X52502Y7904D01*
X52622Y7725D01*
X52850D01*
Y7000D01*
Y6275D01*
X52475D01*
Y6958D01*
X52363Y7018D01*
X52320Y6989D01*
X52106Y6947D01*
X51891Y6989D01*
X51709Y7111D01*
X51588Y7293D01*
X51545Y7507D01*
X51588Y7722D01*
X51709Y7904D01*
X51851Y7999D01*
Y10445D01*
X50506D01*
Y6822D01*
X50487Y6724D01*
X50432Y6641D01*
X50010Y6220D01*
X49928Y6165D01*
X49830Y6145D01*
X48017D01*
X47920Y6165D01*
X47837Y6220D01*
X47720Y6337D01*
X47665Y6420D01*
X47645Y6517D01*
Y15605D01*
X47518Y15658D01*
X41239Y9378D01*
Y6059D01*
X41219Y5961D01*
X41164Y5878D01*
X40805Y5520D01*
X40723Y5464D01*
X40625Y5445D01*
X39750D01*
Y4725D01*
X38050D01*
Y4725D01*
X38028Y4744D01*
X35885D01*
X35885Y4744D01*
X35871Y4747D01*
X35867Y4746D01*
X35732Y4650D01*
X35707Y4524D01*
X35586Y4342D01*
X35404Y4221D01*
X35189Y4178D01*
X34975Y4221D01*
X34793Y4342D01*
X34671Y4524D01*
X34629Y4739D01*
X34582Y4795D01*
X33850D01*
Y4725D01*
X32150D01*
Y5898D01*
X32150Y6025D01*
X32150D01*
Y6025D01*
X32150D01*
Y6525D01*
X32000D01*
Y6850D01*
X33000D01*
X34000D01*
Y6605D01*
X35438D01*
X35518Y6703D01*
X35518Y6707D01*
X35560Y6922D01*
X35682Y7104D01*
X35864Y7225D01*
X36078Y7268D01*
X36293Y7225D01*
X36475Y7104D01*
X36596Y6922D01*
X36639Y6707D01*
X36596Y6493D01*
X36475Y6311D01*
X36293Y6189D01*
X36078Y6147D01*
X35911Y6180D01*
X35901Y6170D01*
X35819Y6115D01*
X35721Y6095D01*
X35395D01*
X35384Y6069D01*
X35373Y5968D01*
X35451Y5916D01*
X35451Y5916D01*
X36011Y5356D01*
X36829D01*
X36854Y5483D01*
X36698Y5587D01*
X36576Y5769D01*
X36534Y5983D01*
X36576Y6198D01*
X36698Y6380D01*
X36880Y6501D01*
X37094Y6544D01*
X37309Y6501D01*
X37491Y6380D01*
X37612Y6198D01*
X37655Y5983D01*
X37634Y5876D01*
X37933Y5578D01*
X38050Y5626D01*
Y5898D01*
X38050Y6025D01*
X38050D01*
Y6025D01*
X38050D01*
Y7175D01*
X37900D01*
Y7500D01*
X38900D01*
Y7800D01*
X37900D01*
Y8051D01*
X37830Y8064D01*
X37747Y8120D01*
X36914Y8953D01*
X36859Y9035D01*
X36840Y9133D01*
Y20512D01*
X36859Y20610D01*
X36914Y20692D01*
X37627Y21405D01*
Y22013D01*
X37564Y22033D01*
X37500Y22034D01*
X37389Y21868D01*
X37207Y21747D01*
X36993Y21704D01*
X36778Y21747D01*
X36596Y21868D01*
X36550Y21937D01*
X36423Y21899D01*
Y16789D01*
X36404Y16691D01*
X36348Y16609D01*
X36024Y16284D01*
X35941Y16229D01*
X35843Y16209D01*
X34960D01*
Y16020D01*
X33040D01*
Y16900D01*
X34746D01*
X34817Y17027D01*
X34781Y17210D01*
X34716Y17290D01*
X33040D01*
Y17475D01*
X32170D01*
X32072Y17494D01*
X31990Y17550D01*
X30470Y19070D01*
X30414Y19152D01*
X30395Y19250D01*
Y23050D01*
X30414Y23148D01*
X30470Y23230D01*
X30777Y23537D01*
X30859Y23592D01*
X30957Y23612D01*
X32890D01*
Y23930D01*
X34000D01*
Y24080D01*
X34150D01*
Y24670D01*
X34805D01*
Y29324D01*
X33727Y30403D01*
X33600Y30350D01*
Y29500D01*
X32400D01*
Y29745D01*
X31790D01*
X31190Y29146D01*
X31108Y29091D01*
X31010Y29071D01*
X26694D01*
X26656Y29040D01*
Y23569D01*
X26798Y23474D01*
X26919Y23292D01*
X26962Y23078D01*
X26919Y22863D01*
X26798Y22681D01*
X26616Y22560D01*
X26401Y22517D01*
X26186Y22560D01*
X26004Y22681D01*
X25883Y22863D01*
X25840Y23078D01*
X25883Y23292D01*
X26004Y23474D01*
X26146Y23569D01*
Y28681D01*
X26019Y28749D01*
X25955Y28706D01*
X25741Y28664D01*
X25574Y28697D01*
X24395Y27519D01*
Y21900D01*
X24582D01*
X24630Y21972D01*
X24847Y22189D01*
X24782Y22285D01*
X24739Y22500D01*
X24782Y22715D01*
X24903Y22897D01*
X25085Y23018D01*
X25300Y23061D01*
X25515Y23018D01*
X25697Y22897D01*
X25818Y22715D01*
X25861Y22500D01*
X25818Y22285D01*
X25697Y22103D01*
X25515Y21982D01*
X25323Y21944D01*
X25235Y21856D01*
Y20104D01*
X25328Y19965D01*
X25371Y19750D01*
X25328Y19536D01*
X25295Y19486D01*
X25363Y19359D01*
X27641D01*
X27713Y19486D01*
X27708Y19494D01*
X26081D01*
X26081Y19494D01*
X25964Y19517D01*
X25865Y19584D01*
X25864Y19585D01*
X25864Y19585D01*
X25797Y19684D01*
X25774Y19801D01*
X25774Y19801D01*
Y20100D01*
X25655D01*
Y21900D01*
X26505D01*
Y20106D01*
X27843D01*
X27903Y20197D01*
X28085Y20318D01*
X28300Y20361D01*
X28515Y20318D01*
X28697Y20197D01*
X28752Y20114D01*
X28879Y20153D01*
Y23441D01*
X28782Y23585D01*
X28739Y23800D01*
X28782Y24015D01*
X28903Y24197D01*
X29085Y24318D01*
X29300Y24361D01*
X29515Y24318D01*
X29697Y24197D01*
X29818Y24015D01*
X29861Y23800D01*
X29818Y23585D01*
X29697Y23403D01*
X29515Y23282D01*
X29388Y23257D01*
Y19304D01*
X29369Y19207D01*
X29314Y19124D01*
X29114Y18924D01*
X29031Y18869D01*
X28934Y18849D01*
X25324D01*
X24898Y18424D01*
Y16500D01*
X25235D01*
Y14700D01*
X24395D01*
Y12947D01*
X24549Y12793D01*
X24604Y12710D01*
X24624Y12613D01*
Y11300D01*
X25425D01*
Y9500D01*
X24808D01*
X24759Y9383D01*
X25587Y8555D01*
X32000D01*
Y8800D01*
X33000D01*
X34000D01*
Y8475D01*
X33850D01*
Y7475D01*
X34000D01*
Y7150D01*
X33000D01*
X32000D01*
Y7395D01*
X25618D01*
X24725Y6503D01*
Y5900D01*
X25425D01*
Y4100D01*
X24725D01*
Y3977D01*
X24706Y3879D01*
X24651Y3797D01*
X24295Y3441D01*
X24213Y3386D01*
X24115Y3366D01*
X17409D01*
X17312Y3386D01*
X17229Y3441D01*
X14664Y6006D01*
X14608Y6089D01*
X14589Y6187D01*
Y17359D01*
X14182Y17766D01*
X14055Y17713D01*
Y12791D01*
X14197Y12697D01*
X14318Y12515D01*
X14361Y12300D01*
X14318Y12085D01*
X14197Y11903D01*
X14015Y11782D01*
X13800Y11739D01*
X13585Y11782D01*
X13403Y11903D01*
X13282Y12085D01*
X13239Y12300D01*
X13282Y12515D01*
X13403Y12697D01*
X13545Y12791D01*
Y17718D01*
X12602Y18661D01*
X12500Y18583D01*
X12500Y18480D01*
Y17400D01*
X12255D01*
Y16837D01*
X12396Y16743D01*
X12517Y16561D01*
X12560Y16347D01*
X12517Y16132D01*
X12396Y15950D01*
X12214Y15829D01*
X12092Y15804D01*
X12050Y15666D01*
X12180Y15536D01*
X12236Y15454D01*
X12255Y15356D01*
Y15241D01*
X12397Y15147D01*
X12518Y14965D01*
X12561Y14750D01*
Y14550D01*
X12518Y14335D01*
X12397Y14153D01*
X12215Y14032D01*
X12000Y13989D01*
X11785Y14032D01*
X11603Y14153D01*
X11482Y14335D01*
X11439Y14550D01*
Y14750D01*
X11482Y14965D01*
X11603Y15147D01*
X11643Y15173D01*
X11659Y15336D01*
X10850Y16145D01*
X10691D01*
X10597Y16003D01*
X10415Y15882D01*
X10200Y15839D01*
X9985Y15882D01*
X9803Y16003D01*
X9682Y16185D01*
X9639Y16400D01*
X9682Y16615D01*
X9803Y16797D01*
X9985Y16918D01*
X10200Y16961D01*
X10415Y16918D01*
X10597Y16797D01*
X10691Y16655D01*
X10956D01*
X11054Y16635D01*
X11136Y16580D01*
X11319Y16397D01*
X11457Y16439D01*
X11481Y16561D01*
X11603Y16743D01*
X11745Y16838D01*
Y17400D01*
X11500D01*
Y18600D01*
X12374D01*
X12483Y18600D01*
X12561Y18702D01*
X8920Y22343D01*
X8865Y22426D01*
X8845Y22523D01*
Y23800D01*
X8865Y23898D01*
X8920Y23980D01*
X9120Y24180D01*
X9202Y24236D01*
X9300Y24255D01*
X9400D01*
Y24800D01*
X9695D01*
Y26964D01*
X9714Y27061D01*
X9745Y27107D01*
Y29470D01*
X9685Y29482D01*
X9503Y29603D01*
X9409Y29745D01*
X5117D01*
X5020Y29765D01*
X4937Y29820D01*
X4820Y29937D01*
X4765Y30020D01*
X4745Y30117D01*
Y36350D01*
X4200D01*
Y37450D01*
X5800D01*
Y36350D01*
X5255D01*
Y30255D01*
X9409D01*
X9503Y30397D01*
X9685Y30518D01*
X9900Y30561D01*
X10100D01*
X10315Y30518D01*
X10497Y30397D01*
X10618Y30215D01*
X10661Y30000D01*
X10618Y29785D01*
X10497Y29603D01*
X10315Y29482D01*
X10255Y29470D01*
Y27014D01*
X10236Y26916D01*
X10205Y26870D01*
Y24800D01*
X10500D01*
Y23200D01*
X9400D01*
X9355Y23092D01*
Y22629D01*
X12659Y19325D01*
X12786Y19378D01*
Y23527D01*
X12727Y23573D01*
X12600Y23514D01*
Y23200D01*
X11500D01*
Y24800D01*
X11795D01*
Y26422D01*
X11653Y26516D01*
X11532Y26698D01*
X11489Y26913D01*
X11532Y27128D01*
X11653Y27310D01*
X11835Y27431D01*
X12050Y27474D01*
X12265Y27431D01*
X12447Y27310D01*
X12481Y27259D01*
X12607Y27246D01*
X13095Y27734D01*
Y29500D01*
X12750D01*
Y30500D01*
X13528D01*
X13635Y30614D01*
Y32654D01*
X13391Y32898D01*
X9255D01*
X9157Y32917D01*
X9074Y32973D01*
X6209Y35838D01*
X6209Y35839D01*
X6208Y35839D01*
X6181Y35880D01*
X6154Y35920D01*
X6154Y35922D01*
X6153Y35922D01*
X6144Y35971D01*
X6135Y36018D01*
X6135Y36019D01*
X6135Y36020D01*
X6157Y38736D01*
X6167Y38784D01*
X6176Y38832D01*
X6177Y38833D01*
X6177Y38834D01*
X6204Y38874D01*
X6232Y38914D01*
X6232Y38915D01*
X6233Y38916D01*
X6274Y38943D01*
X6314Y38970D01*
X6315Y38970D01*
X6316Y38970D01*
X6364Y38980D01*
X6412Y38989D01*
X7040D01*
Y39170D01*
X8960D01*
Y38290D01*
X7040D01*
Y38479D01*
X6665D01*
X6645Y36123D01*
X6913Y35855D01*
X7040Y35908D01*
Y36630D01*
X8960D01*
Y35750D01*
X7198D01*
X7145Y35623D01*
X9360Y33408D01*
X13496D01*
X13594Y33388D01*
X13677Y33333D01*
X14070Y32939D01*
X14081Y32923D01*
X14208Y32962D01*
Y33824D01*
X10827Y37205D01*
X8960D01*
Y37020D01*
X7040D01*
Y37900D01*
X8960D01*
Y37715D01*
X10932D01*
X11030Y37695D01*
X11113Y37640D01*
X14523Y34230D01*
X14640Y34279D01*
Y40904D01*
X13259Y42285D01*
X8960D01*
Y42100D01*
X7040D01*
Y42980D01*
X8960D01*
Y42795D01*
X13365D01*
X13462Y42775D01*
X13545Y42720D01*
X15075Y41190D01*
X15081Y41181D01*
X15208Y41220D01*
Y44837D01*
X15067Y44931D01*
X14945Y45113D01*
X14902Y45328D01*
X14945Y45543D01*
X15067Y45725D01*
X15248Y45846D01*
X15463Y45889D01*
X15678Y45846D01*
X15860Y45725D01*
X15981Y45543D01*
X16024Y45328D01*
X15981Y45113D01*
X15860Y44931D01*
X15718Y44837D01*
Y25314D01*
X16080Y24951D01*
X16135Y24869D01*
X16155Y24771D01*
Y15319D01*
X17737Y13738D01*
X17849Y13804D01*
X17870Y13964D01*
X17941Y14134D01*
X18053Y14280D01*
X18199Y14393D01*
X18273Y14423D01*
X18247Y14550D01*
X17885D01*
Y15450D01*
X18460D01*
Y15600D01*
X18610D01*
Y16650D01*
X18831D01*
Y20100D01*
X18035D01*
Y21900D01*
X18831D01*
Y35644D01*
X18591Y35884D01*
X18340D01*
Y35750D01*
X16420D01*
Y36630D01*
X18340D01*
Y36496D01*
X18717D01*
X18835Y36473D01*
X18934Y36406D01*
X18934Y36406D01*
X19353Y35987D01*
X19419Y35888D01*
X19442Y35771D01*
X19442Y35771D01*
Y21900D01*
X20101D01*
Y29975D01*
X20120Y30072D01*
X20176Y30155D01*
X20201Y30180D01*
X20284Y30236D01*
X20381Y30255D01*
X20409D01*
X20503Y30397D01*
X20685Y30518D01*
X20900Y30561D01*
X21100D01*
X21315Y30518D01*
X21497Y30397D01*
X21574Y30280D01*
X21701Y30319D01*
Y37551D01*
X19809Y39443D01*
X19692Y39380D01*
X19717Y39257D01*
X19674Y39043D01*
X19553Y38861D01*
X19371Y38739D01*
X19156Y38697D01*
X18989Y38730D01*
X18809Y38550D01*
X18726Y38494D01*
X18629Y38475D01*
X18340D01*
Y38290D01*
X16420D01*
Y38475D01*
X16343D01*
X16245Y38494D01*
X16162Y38550D01*
X16137Y38575D01*
X16082Y38658D01*
X16062Y38755D01*
Y40604D01*
X16082Y40701D01*
X16137Y40784D01*
X16162Y40809D01*
X16245Y40864D01*
X16343Y40884D01*
X16420D01*
Y41710D01*
X18340D01*
Y40884D01*
X19746D01*
X19844Y40864D01*
X19926Y40809D01*
X22488Y38248D01*
X22615Y38255D01*
Y38850D01*
X23190D01*
Y39000D01*
X23340D01*
Y40050D01*
X23479D01*
Y42234D01*
X23499Y42331D01*
X23521Y42365D01*
X23459Y42492D01*
X22201D01*
X22103Y42511D01*
X22020Y42566D01*
X21446Y43141D01*
X21390Y43224D01*
X21371Y43321D01*
Y52440D01*
X21390Y52538D01*
X21446Y52620D01*
X23976Y55150D01*
X23926Y55277D01*
X21659D01*
X21659Y55277D01*
X21542Y55301D01*
X21443Y55367D01*
X17284Y59526D01*
X17284Y59526D01*
X17217Y59625D01*
X17211Y59658D01*
X17122Y59695D01*
X16965Y59815D01*
X16845Y59972D01*
X16769Y60154D01*
X16743Y60350D01*
Y61650D01*
X16769Y61846D01*
X16845Y62028D01*
X16965Y62185D01*
X17122Y62305D01*
X17304Y62381D01*
X17500Y62406D01*
X17696Y62381D01*
X17878Y62305D01*
X18035Y62185D01*
X18155Y62028D01*
X18231Y61846D01*
X18256Y61650D01*
Y60350D01*
X18231Y60154D01*
X18155Y59972D01*
X18035Y59815D01*
X18012Y59798D01*
X18004Y59671D01*
X21786Y55889D01*
X31614D01*
X31662Y56007D01*
X25864Y61805D01*
X25744Y61745D01*
X25756Y61650D01*
Y60350D01*
X25731Y60154D01*
X25655Y59972D01*
X25535Y59815D01*
X25378Y59695D01*
X25196Y59619D01*
X25000Y59594D01*
X24804Y59619D01*
X24622Y59695D01*
X24465Y59815D01*
X24345Y59972D01*
X24269Y60154D01*
X24244Y60350D01*
Y61650D01*
X24269Y61846D01*
X24345Y62028D01*
X24414Y62118D01*
X24351Y62245D01*
X23149D01*
X23086Y62118D01*
X23155Y62028D01*
X23231Y61846D01*
X23256Y61650D01*
Y60350D01*
X23231Y60154D01*
X23155Y59972D01*
X23035Y59815D01*
X22878Y59695D01*
X22696Y59619D01*
X22500Y59594D01*
X22304Y59619D01*
X22122Y59695D01*
X21965Y59815D01*
X21845Y59972D01*
X21769Y60154D01*
X21744Y60350D01*
Y61650D01*
X21769Y61846D01*
X21845Y62028D01*
X21965Y62185D01*
X22122Y62305D01*
X22226Y62348D01*
X22245Y62474D01*
X22153Y62595D01*
X22142Y62599D01*
X20677D01*
X20449Y62371D01*
X20457Y62244D01*
X20535Y62185D01*
X20655Y62028D01*
X20731Y61846D01*
X20756Y61650D01*
Y60350D01*
X20731Y60154D01*
X20655Y59972D01*
X20535Y59815D01*
X20378Y59695D01*
X20196Y59619D01*
X20000Y59594D01*
X19804Y59619D01*
X19622Y59695D01*
X19465Y59815D01*
X19345Y59972D01*
X19269Y60154D01*
X19244Y60350D01*
Y61650D01*
X19269Y61846D01*
X19345Y62028D01*
X19465Y62185D01*
X19622Y62305D01*
X19761Y62363D01*
X19764Y62380D01*
X19820Y62463D01*
X20391Y63034D01*
X20474Y63089D01*
X20571Y63109D01*
X27179D01*
X27276Y63089D01*
X27359Y63034D01*
X33621Y56772D01*
X38758D01*
X38856Y56753D01*
X38938Y56698D01*
X40450Y55186D01*
X40506Y55103D01*
X40525Y55005D01*
Y54900D01*
X40695D01*
Y53100D01*
X39845D01*
Y54900D01*
X39849D01*
X39898Y55017D01*
X38652Y56263D01*
X37515D01*
X37502Y56246D01*
X37468Y56136D01*
X37910Y55693D01*
X37965Y55610D01*
X37985Y55513D01*
Y54900D01*
X38155D01*
Y53100D01*
X37349D01*
Y44820D01*
X37349Y44820D01*
X37326Y44703D01*
X37260Y44604D01*
X36828Y44172D01*
X36828Y44172D01*
X36729Y44106D01*
X36612Y44082D01*
X32563D01*
X32515Y43965D01*
X37196Y39284D01*
X40679D01*
X40944Y39549D01*
Y40281D01*
X40817Y40319D01*
X40768Y40245D01*
X40586Y40124D01*
X40371Y40081D01*
X40156Y40124D01*
X39974Y40245D01*
X39853Y40427D01*
X39810Y40642D01*
X39853Y40856D01*
X39974Y41038D01*
X40156Y41160D01*
X40371Y41202D01*
X40440Y41189D01*
X40522Y41276D01*
X40477Y41385D01*
X39322D01*
X39225Y41405D01*
X39142Y41460D01*
X38820Y41782D01*
X38765Y41865D01*
X38745Y41963D01*
Y53024D01*
Y53100D01*
X38575D01*
Y54900D01*
X39425D01*
Y53100D01*
X39425D01*
X39384Y53001D01*
X40731Y51653D01*
X48245D01*
X48343Y51634D01*
X48425Y51579D01*
X48755Y51249D01*
X48808Y51170D01*
X48819Y51168D01*
X48935Y51191D01*
Y53935D01*
X47740Y55130D01*
X47684Y55213D01*
X47665Y55310D01*
Y55788D01*
Y57551D01*
X47548Y57600D01*
X47291Y57344D01*
X47209Y57288D01*
X47111Y57269D01*
X35545D01*
X35447Y57288D01*
X35365Y57344D01*
X35010Y57699D01*
X34955Y57781D01*
X34935Y57879D01*
Y58500D01*
X34765D01*
Y60300D01*
X35615D01*
Y58824D01*
X35640Y58798D01*
X35796Y58791D01*
X36035Y59030D01*
Y60300D01*
X36885D01*
Y58500D01*
X36439D01*
X36372Y58373D01*
X36411Y58180D01*
X36368Y57966D01*
X36328Y57906D01*
X36396Y57779D01*
X47005D01*
X47529Y58303D01*
X47481Y58420D01*
X47480D01*
Y60340D01*
X48360D01*
Y58420D01*
X48175D01*
Y55942D01*
X48283Y55848D01*
X48397Y55871D01*
X48612Y55828D01*
X48794Y55707D01*
X48915Y55525D01*
X48958Y55310D01*
X48915Y55096D01*
X48794Y54914D01*
X48783Y54807D01*
X49370Y54220D01*
X49425Y54138D01*
X49445Y54040D01*
Y51050D01*
X49535Y51014D01*
X49580Y51043D01*
X49641Y51096D01*
Y58298D01*
X49630Y58420D01*
X48750D01*
Y60340D01*
X48935D01*
Y61945D01*
X41544D01*
X41520Y61818D01*
X41577Y61780D01*
X42947Y60410D01*
X43114Y60443D01*
X43329Y60400D01*
X43511Y60279D01*
X43632Y60097D01*
X43675Y59882D01*
X43632Y59668D01*
X43511Y59486D01*
X43329Y59364D01*
X43114Y59321D01*
X42900Y59364D01*
X42718Y59486D01*
X42596Y59668D01*
X42553Y59882D01*
X42587Y60049D01*
X41291Y61345D01*
X39892D01*
X39849Y61218D01*
X39880Y61194D01*
X39992Y61048D01*
X40062Y60878D01*
X40067Y60845D01*
X39380D01*
Y60545D01*
X40094D01*
X40120Y60508D01*
Y59550D01*
X39695D01*
Y59953D01*
X39589Y60024D01*
X39563Y60013D01*
X39425Y59995D01*
Y58500D01*
X38575D01*
Y59914D01*
X38539Y59950D01*
X38484Y60033D01*
X38464Y60131D01*
X38461Y60133D01*
X38339Y60109D01*
X38253Y60126D01*
X38155Y60045D01*
Y58500D01*
X37305D01*
Y60300D01*
X37348D01*
X37423Y60391D01*
Y61013D01*
X37442Y61110D01*
X37498Y61193D01*
X38085Y61780D01*
X38142Y61818D01*
X38117Y61945D01*
X33854D01*
X32905Y60996D01*
Y60300D01*
X33075D01*
Y58500D01*
X32225D01*
Y60300D01*
X32395D01*
Y61101D01*
X32415Y61199D01*
X32470Y61282D01*
X33568Y62380D01*
X33651Y62435D01*
X33749Y62455D01*
X63838D01*
Y66000D01*
X-0D01*
X-0Y3000D01*
D02*
G37*
G36*
X64000Y62455D02*
X68300D01*
X68398Y62435D01*
X68480Y62380D01*
X69533Y61328D01*
X69588Y61245D01*
X69607Y61148D01*
Y59450D01*
X69774D01*
Y59924D01*
X69774Y59924D01*
X69797Y60041D01*
X69864Y60141D01*
X69864Y60141D01*
X70039Y60316D01*
X70139Y60383D01*
X70256Y60406D01*
X70256Y60406D01*
X73324D01*
X73324Y60406D01*
X73441Y60383D01*
X73541Y60316D01*
X73541Y60316D01*
X73716Y60141D01*
X73783Y60041D01*
X73806Y59924D01*
X73806Y59924D01*
Y47206D01*
X81824D01*
X81824Y47206D01*
X81941Y47183D01*
X82041Y47116D01*
X82041Y47116D01*
X82216Y46941D01*
X82283Y46841D01*
X82306Y46724D01*
X82306Y46724D01*
Y41776D01*
X82306Y41776D01*
X82283Y41659D01*
X82216Y41559D01*
X81941Y41284D01*
X81941Y41284D01*
X81841Y41217D01*
X81724Y41194D01*
X81724Y41194D01*
X80902D01*
X80830Y41021D01*
X80678Y40822D01*
X80479Y40670D01*
X80248Y40574D01*
X80150Y40562D01*
Y41500D01*
Y42438D01*
X80248Y42426D01*
X80479Y42330D01*
X80678Y42178D01*
X80830Y41979D01*
X80902Y41806D01*
X81598D01*
X81694Y41902D01*
Y46594D01*
X73676D01*
X73676Y46594D01*
X73559Y46617D01*
X73459Y46684D01*
X73284Y46859D01*
X73284Y46859D01*
X73217Y46959D01*
X73194Y47076D01*
X73194Y47076D01*
Y59794D01*
X70386D01*
Y59450D01*
X70655D01*
Y58550D01*
X70080D01*
Y58400D01*
X69930D01*
Y57350D01*
X69607D01*
Y55762D01*
X70260Y55109D01*
X70315Y55027D01*
X70335Y54929D01*
Y53900D01*
X70505D01*
Y52100D01*
X70335D01*
Y48071D01*
X70477Y47976D01*
X70598Y47794D01*
X70641Y47580D01*
X70598Y47365D01*
X70477Y47183D01*
X70295Y47062D01*
X70080Y47019D01*
X69865Y47062D01*
X69796Y47108D01*
X69684Y47048D01*
Y46534D01*
X69822Y46396D01*
X73224D01*
X73224Y46396D01*
X73341Y46373D01*
X73441Y46306D01*
X73441Y46306D01*
X73616Y46131D01*
X73683Y46031D01*
X73706Y45914D01*
X73706Y45914D01*
Y44592D01*
X79443D01*
X79443Y44592D01*
X79455Y44590D01*
X79597Y44699D01*
X79791Y44779D01*
X80000Y44807D01*
X80209Y44779D01*
X80403Y44699D01*
X80571Y44571D01*
X80699Y44403D01*
X80779Y44209D01*
X80807Y44000D01*
X80779Y43791D01*
X80699Y43597D01*
X80571Y43429D01*
X80403Y43301D01*
X80209Y43221D01*
X80000Y43193D01*
X79791Y43221D01*
X79597Y43301D01*
X79429Y43429D01*
X79301Y43597D01*
X79221Y43791D01*
X79196Y43981D01*
X72467D01*
X72340Y43980D01*
X72340Y43854D01*
Y43100D01*
X70420D01*
X70420Y43980D01*
X70293Y43981D01*
X68768D01*
X68006Y43219D01*
Y37733D01*
X68118Y37673D01*
X68185Y37718D01*
X68400Y37761D01*
X68615Y37718D01*
X68797Y37597D01*
X68895Y37450D01*
X70420D01*
Y37630D01*
X72340D01*
X72374Y37743D01*
Y37907D01*
X72340Y38020D01*
X70420D01*
Y38900D01*
X72340D01*
Y38715D01*
X72604D01*
X72701Y38695D01*
X72784Y38640D01*
X72809Y38615D01*
X72864Y38532D01*
X72884Y38435D01*
Y35397D01*
X72864Y35299D01*
X72809Y35216D01*
X72784Y35191D01*
X72701Y35136D01*
X72604Y35116D01*
X72490D01*
Y34956D01*
X73023D01*
X75512Y37444D01*
X75512Y37444D01*
X79146Y41079D01*
X79074Y41252D01*
X79062Y41350D01*
X79850D01*
Y40562D01*
X79752Y40574D01*
X79579Y40646D01*
X76034Y37101D01*
Y3520D01*
X76034Y3520D01*
X76010Y3403D01*
X75944Y3303D01*
X74420Y1779D01*
X74321Y1713D01*
X74204Y1690D01*
X66876D01*
X66876Y1690D01*
X66759Y1713D01*
X66659Y1779D01*
X66484Y1955D01*
X66484Y1955D01*
X66417Y2054D01*
X66394Y2171D01*
X66394Y2171D01*
Y4154D01*
X66050D01*
Y3885D01*
X65150D01*
Y4460D01*
X64850D01*
Y3885D01*
X64000D01*
Y0D01*
X85000D01*
Y66000D01*
X64000D01*
Y62455D01*
D02*
G37*
G36*
X53440Y58420D02*
X53255D01*
Y57143D01*
X55004Y55394D01*
X55059Y55311D01*
X55078Y55214D01*
Y51078D01*
X55100Y50960D01*
X55205Y50960D01*
X55980D01*
Y49040D01*
X55100Y49040D01*
X55078Y48922D01*
Y41738D01*
X55119Y41711D01*
X55240Y41529D01*
X55283Y41315D01*
X55255Y41177D01*
X55348Y41050D01*
X55550D01*
Y40450D01*
X54950D01*
Y40150D01*
X55550D01*
Y40022D01*
X55667Y39974D01*
X56828Y41134D01*
X56828Y41134D01*
X58144Y42450D01*
X58227Y42505D01*
X58324Y42525D01*
X61040D01*
Y42710D01*
X62960D01*
Y42525D01*
X64000D01*
Y52100D01*
X63305D01*
Y53900D01*
X64000D01*
Y57500D01*
X63305D01*
Y59300D01*
X64000D01*
Y60186D01*
X56130D01*
Y59530D01*
X54950D01*
Y60186D01*
X54710D01*
Y58420D01*
X53830D01*
Y60186D01*
X53440D01*
Y58420D01*
D02*
G37*
G36*
X44763Y36380D02*
X44680Y36325D01*
X44582Y36305D01*
X43200D01*
Y36135D01*
X41555D01*
Y35715D01*
X43200D01*
Y34865D01*
X42531D01*
Y31714D01*
X42698Y31602D01*
X42819Y31420D01*
X42862Y31206D01*
X42837Y31077D01*
X42900Y30994D01*
Y30150D01*
X42350D01*
Y30605D01*
X42301Y30645D01*
X42087Y30688D01*
X41997Y30747D01*
X41870Y30679D01*
Y19897D01*
X42330Y19894D01*
X42420Y19983D01*
Y20710D01*
X44340D01*
Y19879D01*
X44462Y19878D01*
X44463Y19878D01*
X44464Y19878D01*
X44512Y19868D01*
X44560Y19858D01*
X44560Y19858D01*
X44561Y19857D01*
X44601Y19830D01*
X44642Y19802D01*
X44642Y19801D01*
X44643Y19801D01*
X44670Y19760D01*
X44697Y19719D01*
X44697Y19718D01*
X44697Y19718D01*
X44706Y19669D01*
X44715Y19621D01*
X44715Y19621D01*
X44715Y19620D01*
X44690Y17727D01*
X44680Y17680D01*
X44670Y17632D01*
X44670Y17631D01*
X44669Y17629D01*
X44687Y17539D01*
X44728Y17493D01*
X44790Y17494D01*
X44917Y17621D01*
Y27794D01*
X44936Y27892D01*
X44991Y27974D01*
X45074Y28030D01*
X45172Y28049D01*
X48795D01*
Y34607D01*
X48750Y34715D01*
X48668Y34715D01*
X47850D01*
Y35290D01*
Y35865D01*
X48668D01*
X48750Y35865D01*
X48795Y35973D01*
Y36701D01*
X48704Y36768D01*
X48677Y36777D01*
X48600Y36740D01*
Y36135D01*
X46800D01*
Y36135D01*
X46682Y36213D01*
X46673Y36213D01*
X46559Y36041D01*
X46377Y35920D01*
X46162Y35877D01*
X45948Y35920D01*
X45766Y36041D01*
X45644Y36223D01*
X45601Y36438D01*
X45644Y36653D01*
X45687Y36716D01*
X45619Y36843D01*
X45226D01*
X44763Y36380D01*
D02*
G37*
G36*
X64850Y8965D02*
X64146D01*
Y8731D01*
X64182Y8695D01*
X65900D01*
Y7845D01*
X64100D01*
X64000Y7780D01*
Y7490D01*
X64100Y7425D01*
X65900D01*
Y6575D01*
X64398D01*
X64317Y6477D01*
X64325Y6441D01*
X64317Y6403D01*
X64398Y6305D01*
X64850D01*
Y5730D01*
X65150D01*
Y6305D01*
X66050D01*
X66094Y6414D01*
Y8856D01*
X66050Y8965D01*
X65150D01*
Y9540D01*
X64850D01*
Y8965D01*
D02*
G37*
G36*
X73366Y34434D02*
X73366Y34434D01*
X73267Y34367D01*
X73150Y34344D01*
X72490D01*
Y34060D01*
X71530D01*
Y34650D01*
X71230D01*
Y34060D01*
X70572D01*
Y28466D01*
X75095Y23944D01*
X75150Y23861D01*
X75170Y23763D01*
Y4267D01*
X75150Y4170D01*
X75095Y4087D01*
X73828Y2820D01*
X73745Y2765D01*
X73648Y2745D01*
X68000D01*
X67902Y2765D01*
X67820Y2820D01*
X67394Y3245D01*
X67339Y3328D01*
X67320Y3426D01*
Y9561D01*
X66986Y9894D01*
X66463D01*
X66424Y9767D01*
X66441Y9756D01*
X66441Y9756D01*
X66616Y9581D01*
X66683Y9481D01*
X66706Y9364D01*
X66706Y9364D01*
Y5906D01*
X66706Y5906D01*
X66683Y5789D01*
X66616Y5689D01*
X66441Y5514D01*
X66441Y5514D01*
X66341Y5447D01*
X66224Y5424D01*
X66224Y5424D01*
X66050D01*
Y5155D01*
X66050D01*
Y5035D01*
X66050D01*
Y4766D01*
X66524D01*
X66524Y4766D01*
X66641Y4743D01*
X66741Y4676D01*
X66741Y4676D01*
X66916Y4501D01*
X66983Y4401D01*
X67006Y4284D01*
X67006Y4284D01*
Y2301D01*
X74077D01*
X75422Y3646D01*
Y36323D01*
X75305Y36372D01*
X73366Y34434D01*
D02*
G37*
%LPC*%
G36*
X3450Y65698D02*
Y62750D01*
X502D01*
X529Y63086D01*
X643Y63561D01*
X829Y64012D01*
X1084Y64428D01*
X1401Y64799D01*
X1772Y65116D01*
X2188Y65371D01*
X2639Y65557D01*
X3114Y65671D01*
X3450Y65698D01*
D02*
G37*
G36*
X3750D02*
X4086Y65671D01*
X4561Y65557D01*
X5012Y65371D01*
X5428Y65116D01*
X5799Y64799D01*
X6116Y64428D01*
X6371Y64012D01*
X6557Y63561D01*
X6671Y63086D01*
X6698Y62750D01*
X3750D01*
Y65698D01*
D02*
G37*
G36*
X14850Y62538D02*
Y61150D01*
X14092D01*
Y61650D01*
X14123Y61885D01*
X14214Y62104D01*
X14358Y62292D01*
X14546Y62436D01*
X14765Y62527D01*
X14850Y62538D01*
D02*
G37*
G36*
X15150D02*
X15235Y62527D01*
X15454Y62436D01*
X15642Y62292D01*
X15786Y62104D01*
X15877Y61885D01*
X15908Y61650D01*
Y61150D01*
X15150D01*
Y62538D01*
D02*
G37*
G36*
X10000Y62406D02*
X10196Y62381D01*
X10378Y62305D01*
X10535Y62185D01*
X10655Y62028D01*
X10731Y61846D01*
X10756Y61650D01*
Y60350D01*
X10731Y60154D01*
X10655Y59972D01*
X10535Y59815D01*
X10378Y59695D01*
X10196Y59619D01*
X10000Y59594D01*
X9804Y59619D01*
X9622Y59695D01*
X9465Y59815D01*
X9345Y59972D01*
X9269Y60154D01*
X9244Y60350D01*
Y61650D01*
X9269Y61846D01*
X9345Y62028D01*
X9465Y62185D01*
X9622Y62305D01*
X9804Y62381D01*
X10000Y62406D01*
D02*
G37*
G36*
X12500D02*
X12696Y62381D01*
X12878Y62305D01*
X13035Y62185D01*
X13155Y62028D01*
X13231Y61846D01*
X13256Y61650D01*
Y60350D01*
X13231Y60154D01*
X13155Y59972D01*
X13035Y59815D01*
X12878Y59695D01*
X12696Y59619D01*
X12500Y59594D01*
X12304Y59619D01*
X12122Y59695D01*
X11965Y59815D01*
X11845Y59972D01*
X11769Y60154D01*
X11744Y60350D01*
Y61650D01*
X11769Y61846D01*
X11845Y62028D01*
X11965Y62185D01*
X12122Y62305D01*
X12304Y62381D01*
X12500Y62406D01*
D02*
G37*
G36*
X40420Y60450D02*
X40845D01*
Y59550D01*
X40420D01*
Y60450D01*
D02*
G37*
G36*
X502Y62450D02*
X3450D01*
Y59502D01*
X3114Y59529D01*
X2639Y59643D01*
X2188Y59829D01*
X1772Y60084D01*
X1401Y60401D01*
X1084Y60772D01*
X829Y61188D01*
X643Y61639D01*
X529Y62114D01*
X502Y62450D01*
D02*
G37*
G36*
X3750D02*
X6766D01*
X6821Y62400D01*
X8250D01*
Y59600D01*
X6750D01*
Y61897D01*
X6623Y61912D01*
X6557Y61639D01*
X6371Y61188D01*
X6116Y60772D01*
X5799Y60401D01*
X5428Y60084D01*
X5012Y59829D01*
X4561Y59643D01*
X4086Y59529D01*
X3750Y59502D01*
Y62450D01*
D02*
G37*
G36*
X14092Y60850D02*
X14850D01*
Y59462D01*
X14765Y59473D01*
X14546Y59564D01*
X14358Y59708D01*
X14214Y59896D01*
X14123Y60115D01*
X14092Y60350D01*
Y60850D01*
D02*
G37*
G36*
X15150D02*
X15908D01*
Y60350D01*
X15877Y60115D01*
X15786Y59896D01*
X15642Y59708D01*
X15454Y59564D01*
X15235Y59473D01*
X15150Y59462D01*
Y60850D01*
D02*
G37*
G36*
X46210Y60340D02*
X47090D01*
Y58420D01*
X46210D01*
Y60340D01*
D02*
G37*
G36*
X39695Y59250D02*
X40120D01*
Y58350D01*
X39695D01*
Y59250D01*
D02*
G37*
G36*
X40420D02*
X40845D01*
Y58350D01*
X40420D01*
Y59250D01*
D02*
G37*
G36*
X33495Y60300D02*
X34345D01*
Y58500D01*
X34175D01*
Y58011D01*
X34317Y57917D01*
X34438Y57735D01*
X34481Y57520D01*
X34438Y57305D01*
X34317Y57123D01*
X34135Y57002D01*
X33920Y56959D01*
X33705Y57002D01*
X33523Y57123D01*
X33402Y57305D01*
X33359Y57520D01*
X33402Y57735D01*
X33523Y57917D01*
X33665Y58011D01*
Y58500D01*
X33495D01*
Y60300D01*
D02*
G37*
G36*
X19850Y52538D02*
Y51150D01*
X19092D01*
Y51650D01*
X19123Y51885D01*
X19214Y52104D01*
X19358Y52292D01*
X19546Y52436D01*
X19765Y52527D01*
X19850Y52538D01*
D02*
G37*
G36*
X20150D02*
X20235Y52527D01*
X20454Y52436D01*
X20642Y52292D01*
X20786Y52104D01*
X20877Y51885D01*
X20908Y51650D01*
Y51150D01*
X20150D01*
Y52538D01*
D02*
G37*
G36*
X7500Y52406D02*
X7696Y52381D01*
X7878Y52305D01*
X8035Y52185D01*
X8155Y52028D01*
X8231Y51846D01*
X8256Y51650D01*
Y50350D01*
X8231Y50154D01*
X8155Y49972D01*
X8035Y49815D01*
X7878Y49695D01*
X7696Y49619D01*
X7500Y49594D01*
X7304Y49619D01*
X7122Y49695D01*
X6965Y49815D01*
X6845Y49972D01*
X6769Y50154D01*
X6744Y50350D01*
Y51650D01*
X6769Y51846D01*
X6845Y52028D01*
X6965Y52185D01*
X7122Y52305D01*
X7304Y52381D01*
X7500Y52406D01*
D02*
G37*
G36*
X10000D02*
X10196Y52381D01*
X10378Y52305D01*
X10535Y52185D01*
X10655Y52028D01*
X10731Y51846D01*
X10756Y51650D01*
Y50350D01*
X10731Y50154D01*
X10655Y49972D01*
X10535Y49815D01*
X10378Y49695D01*
X10196Y49619D01*
X10000Y49594D01*
X9804Y49619D01*
X9622Y49695D01*
X9465Y49815D01*
X9345Y49972D01*
X9269Y50154D01*
X9244Y50350D01*
Y51650D01*
X9269Y51846D01*
X9345Y52028D01*
X9465Y52185D01*
X9622Y52305D01*
X9804Y52381D01*
X10000Y52406D01*
D02*
G37*
G36*
X12500D02*
X12696Y52381D01*
X12878Y52305D01*
X13035Y52185D01*
X13155Y52028D01*
X13231Y51846D01*
X13256Y51650D01*
Y50350D01*
X13231Y50154D01*
X13155Y49972D01*
X13035Y49815D01*
X12878Y49695D01*
X12696Y49619D01*
X12500Y49594D01*
X12304Y49619D01*
X12122Y49695D01*
X11965Y49815D01*
X11845Y49972D01*
X11769Y50154D01*
X11744Y50350D01*
Y51650D01*
X11769Y51846D01*
X11845Y52028D01*
X11965Y52185D01*
X12122Y52305D01*
X12304Y52381D01*
X12500Y52406D01*
D02*
G37*
G36*
X15000D02*
X15196Y52381D01*
X15378Y52305D01*
X15535Y52185D01*
X15655Y52028D01*
X15731Y51846D01*
X15756Y51650D01*
Y50350D01*
X15731Y50154D01*
X15655Y49972D01*
X15535Y49815D01*
X15378Y49695D01*
X15196Y49619D01*
X15000Y49594D01*
X14804Y49619D01*
X14622Y49695D01*
X14465Y49815D01*
X14345Y49972D01*
X14269Y50154D01*
X14244Y50350D01*
Y51650D01*
X14269Y51846D01*
X14345Y52028D01*
X14465Y52185D01*
X14622Y52305D01*
X14804Y52381D01*
X15000Y52406D01*
D02*
G37*
G36*
X17500D02*
X17696Y52381D01*
X17878Y52305D01*
X18035Y52185D01*
X18155Y52028D01*
X18231Y51846D01*
X18256Y51650D01*
Y50350D01*
X18231Y50154D01*
X18155Y49972D01*
X18035Y49815D01*
X17878Y49695D01*
X17696Y49619D01*
X17500Y49594D01*
X17304Y49619D01*
X17122Y49695D01*
X16965Y49815D01*
X16845Y49972D01*
X16769Y50154D01*
X16743Y50350D01*
Y51650D01*
X16769Y51846D01*
X16845Y52028D01*
X16965Y52185D01*
X17122Y52305D01*
X17304Y52381D01*
X17500Y52406D01*
D02*
G37*
G36*
X19092Y50850D02*
X19850D01*
Y49462D01*
X19765Y49473D01*
X19546Y49564D01*
X19358Y49708D01*
X19214Y49896D01*
X19123Y50115D01*
X19092Y50350D01*
Y50850D01*
D02*
G37*
G36*
X20150D02*
X20908D01*
Y50350D01*
X20877Y50115D01*
X20786Y49896D01*
X20642Y49708D01*
X20454Y49564D01*
X20235Y49473D01*
X20150Y49462D01*
Y50850D01*
D02*
G37*
G36*
X6890Y45670D02*
X7850D01*
Y45230D01*
X6890D01*
Y45670D01*
D02*
G37*
G36*
X8150D02*
X9110D01*
Y45230D01*
X8150D01*
Y45670D01*
D02*
G37*
G36*
X16420Y45520D02*
X18340D01*
Y44640D01*
X16420D01*
Y45520D01*
D02*
G37*
G36*
X6890Y44930D02*
X7850D01*
Y44490D01*
X6890D01*
Y44930D01*
D02*
G37*
G36*
X8150D02*
X9110D01*
Y44490D01*
X8150D01*
Y44930D01*
D02*
G37*
G36*
X7040Y44250D02*
X8960D01*
Y43370D01*
X7040D01*
Y44250D01*
D02*
G37*
G36*
X16420D02*
X18340D01*
Y43370D01*
X16420D01*
Y44250D01*
D02*
G37*
G36*
Y42980D02*
X18340D01*
Y42100D01*
X16420D01*
Y42980D01*
D02*
G37*
G36*
X7040Y41710D02*
X8960D01*
Y40830D01*
X7040D01*
Y41710D01*
D02*
G37*
G36*
X22615Y40050D02*
X23040D01*
Y39150D01*
X22615D01*
Y40050D01*
D02*
G37*
G36*
X11440Y40936D02*
X11655Y40893D01*
X11837Y40772D01*
X11958Y40590D01*
X12001Y40375D01*
X11958Y40160D01*
X11837Y39978D01*
X11655Y39857D01*
X11440Y39814D01*
X11273Y39847D01*
X11246Y39820D01*
X11163Y39764D01*
X11065Y39745D01*
X8960D01*
Y39560D01*
X7040D01*
Y39745D01*
X5255D01*
Y39550D01*
X5800D01*
Y38450D01*
X4200D01*
Y39550D01*
X4745D01*
Y39883D01*
X4765Y39980D01*
X4820Y40063D01*
X4937Y40180D01*
X5020Y40235D01*
X5117Y40255D01*
X7040D01*
Y40440D01*
X8960D01*
Y40255D01*
X10803D01*
X10884Y40353D01*
X10880Y40375D01*
X10922Y40590D01*
X11044Y40772D01*
X11226Y40893D01*
X11440Y40936D01*
D02*
G37*
G36*
X16420Y37900D02*
X18340D01*
Y37020D01*
X16420D01*
Y37900D01*
D02*
G37*
G36*
X32550Y27777D02*
Y27241D01*
X32014D01*
X32018Y27274D01*
X32089Y27444D01*
X32201Y27590D01*
X32347Y27702D01*
X32517Y27773D01*
X32550Y27777D01*
D02*
G37*
G36*
X32850D02*
X32883Y27773D01*
X33053Y27702D01*
X33199Y27590D01*
X33312Y27444D01*
X33382Y27274D01*
X33386Y27241D01*
X32850D01*
Y27777D01*
D02*
G37*
G36*
X32014Y26941D02*
X32550D01*
Y26405D01*
X32517Y26409D01*
X32347Y26479D01*
X32201Y26592D01*
X32089Y26738D01*
X32018Y26908D01*
X32014Y26941D01*
D02*
G37*
G36*
X32850D02*
X33386D01*
X33382Y26908D01*
X33312Y26738D01*
X33199Y26592D01*
X33053Y26479D01*
X32883Y26409D01*
X32850Y26405D01*
Y26941D01*
D02*
G37*
G36*
X32890Y24670D02*
X33850D01*
Y24230D01*
X32890D01*
Y24670D01*
D02*
G37*
G36*
X52050Y20800D02*
X52850D01*
Y20250D01*
X52050D01*
Y20800D01*
D02*
G37*
G36*
X17885Y16650D02*
X18310D01*
Y15750D01*
X17885D01*
Y16650D01*
D02*
G37*
G36*
X52850Y15705D02*
Y15150D01*
X52465D01*
Y15200D01*
X52505Y15405D01*
X52621Y15578D01*
X52795Y15695D01*
X52850Y15705D01*
D02*
G37*
G36*
X53150D02*
X53205Y15695D01*
X53378Y15578D01*
X53495Y15405D01*
X53535Y15200D01*
Y15150D01*
X53150D01*
Y15705D01*
D02*
G37*
G36*
X33040Y15630D02*
X34960D01*
Y14750D01*
X33040D01*
Y15630D01*
D02*
G37*
G36*
X26080Y18558D02*
X26295Y18516D01*
X26477Y18394D01*
X26598Y18212D01*
X26641Y17998D01*
X26598Y17783D01*
X26477Y17601D01*
X26335Y17506D01*
Y16500D01*
X26505D01*
Y14700D01*
X25655D01*
Y16500D01*
X25825D01*
Y17506D01*
X25683Y17601D01*
X25562Y17783D01*
X25519Y17998D01*
X25562Y18212D01*
X25683Y18394D01*
X25865Y18516D01*
X26080Y18558D01*
D02*
G37*
G36*
X52465Y14850D02*
X52850D01*
Y14295D01*
X52795Y14305D01*
X52621Y14421D01*
X52505Y14595D01*
X52465Y14800D01*
Y14850D01*
D02*
G37*
G36*
X53150D02*
X53535D01*
Y14800D01*
X53495Y14595D01*
X53378Y14421D01*
X53205Y14305D01*
X53150Y14295D01*
Y14850D01*
D02*
G37*
G36*
X25438Y14467D02*
Y13931D01*
X24902D01*
X24906Y13964D01*
X24977Y14134D01*
X25089Y14280D01*
X25235Y14393D01*
X25405Y14463D01*
X25438Y14467D01*
D02*
G37*
G36*
X25738D02*
X25771Y14463D01*
X25941Y14393D01*
X26087Y14280D01*
X26200Y14134D01*
X26270Y13964D01*
X26274Y13931D01*
X25738D01*
Y14467D01*
D02*
G37*
G36*
X24902Y13631D02*
X25438D01*
Y13095D01*
X25405Y13099D01*
X25235Y13170D01*
X25089Y13282D01*
X24977Y13428D01*
X24906Y13598D01*
X24902Y13631D01*
D02*
G37*
G36*
X25738D02*
X26274D01*
X26270Y13598D01*
X26200Y13428D01*
X26087Y13282D01*
X25941Y13170D01*
X25771Y13099D01*
X25738Y13095D01*
Y13631D01*
D02*
G37*
G36*
X58550Y12655D02*
X59450D01*
Y12230D01*
X58550D01*
Y12655D01*
D02*
G37*
G36*
X59750D02*
X60650D01*
Y12230D01*
X59750D01*
Y12655D01*
D02*
G37*
G36*
X58550Y11930D02*
X59450D01*
Y11505D01*
X58550D01*
Y11930D01*
D02*
G37*
G36*
X59750D02*
X60650D01*
Y11505D01*
X59750D01*
Y11930D01*
D02*
G37*
G36*
X25695Y11450D02*
X26120D01*
Y10550D01*
X25695D01*
Y11450D01*
D02*
G37*
G36*
X26420D02*
X26845D01*
Y10550D01*
X26420D01*
Y11450D01*
D02*
G37*
G36*
X58550Y10115D02*
X59450D01*
Y9690D01*
X58550D01*
Y10115D01*
D02*
G37*
G36*
X25695Y10250D02*
X26120D01*
Y9350D01*
X25695D01*
Y10250D01*
D02*
G37*
G36*
X26420D02*
X26845D01*
Y9350D01*
X26420D01*
Y10250D01*
D02*
G37*
G36*
X32000Y9425D02*
X32850D01*
Y9100D01*
X32000D01*
Y9425D01*
D02*
G37*
G36*
X33150D02*
X34000D01*
Y9100D01*
X33150D01*
Y9425D01*
D02*
G37*
G36*
X58550Y9390D02*
X59450D01*
Y8965D01*
X58550D01*
Y9390D01*
D02*
G37*
G36*
X53150Y7725D02*
X53525D01*
Y7150D01*
X53150D01*
Y7725D01*
D02*
G37*
G36*
Y6850D02*
X53525D01*
Y6275D01*
X53150D01*
Y6850D01*
D02*
G37*
G36*
X58550Y6305D02*
X59450D01*
Y5880D01*
X58550D01*
Y6305D01*
D02*
G37*
G36*
X59750D02*
X60650D01*
Y5880D01*
X59750D01*
Y6305D01*
D02*
G37*
G36*
X44050Y5650D02*
X44850D01*
Y5100D01*
X44050D01*
Y5650D01*
D02*
G37*
G36*
Y4800D02*
X44850D01*
Y4250D01*
X44050D01*
Y4800D01*
D02*
G37*
G36*
X45150D02*
X45950D01*
Y4250D01*
X45150D01*
Y4800D01*
D02*
G37*
G36*
X25845Y5900D02*
X26695D01*
Y4100D01*
X25845D01*
Y5900D01*
D02*
G37*
G36*
X3650Y6898D02*
Y3950D01*
X702D01*
X729Y4286D01*
X843Y4761D01*
X1029Y5212D01*
X1284Y5628D01*
X1601Y5999D01*
X1972Y6316D01*
X2388Y6571D01*
X2839Y6757D01*
X3314Y6871D01*
X3650Y6898D01*
D02*
G37*
G36*
X3950D02*
X4286Y6871D01*
X4761Y6757D01*
X5212Y6571D01*
X5628Y6316D01*
X5999Y5999D01*
X6316Y5628D01*
X6571Y5212D01*
X6757Y4761D01*
X6871Y4286D01*
X6898Y3950D01*
X3950D01*
Y6898D01*
D02*
G37*
G36*
X702Y3650D02*
X3650D01*
Y702D01*
X3314Y729D01*
X2839Y843D01*
X2388Y1029D01*
X1972Y1284D01*
X1601Y1601D01*
X1284Y1972D01*
X1029Y2388D01*
X843Y2839D01*
X729Y3314D01*
X702Y3650D01*
D02*
G37*
G36*
X3950D02*
X6898D01*
X6871Y3314D01*
X6757Y2839D01*
X6571Y2388D01*
X6316Y1972D01*
X5999Y1601D01*
X5628Y1284D01*
X5212Y1029D01*
X4761Y843D01*
X4286Y729D01*
X3950Y702D01*
Y3650D01*
D02*
G37*
G36*
X81200Y65259D02*
X81663Y65223D01*
X82114Y65114D01*
X82543Y64937D01*
X82939Y64694D01*
X83292Y64392D01*
X83594Y64039D01*
X83837Y63643D01*
X84014Y63214D01*
X84123Y62763D01*
X84159Y62300D01*
X84123Y61837D01*
X84014Y61386D01*
X83837Y60957D01*
X83594Y60561D01*
X83292Y60208D01*
X82939Y59906D01*
X82543Y59663D01*
X82114Y59486D01*
X81663Y59377D01*
X81200Y59341D01*
X80737Y59377D01*
X80286Y59486D01*
X79857Y59663D01*
X79461Y59906D01*
X79108Y60208D01*
X78806Y60561D01*
X78563Y60957D01*
X78386Y61386D01*
X78277Y61837D01*
X78241Y62300D01*
X78277Y62763D01*
X78386Y63214D01*
X78563Y63643D01*
X78806Y64039D01*
X79108Y64392D01*
X79461Y64694D01*
X79857Y64937D01*
X80286Y65114D01*
X80737Y65223D01*
X81200Y65259D01*
D02*
G37*
G36*
X70230Y58250D02*
X70655D01*
Y57350D01*
X70230D01*
Y58250D01*
D02*
G37*
G36*
X70420Y42710D02*
X72340D01*
Y41830D01*
X70420D01*
Y42710D01*
D02*
G37*
G36*
X79850Y42438D02*
Y41650D01*
X79062D01*
X79074Y41748D01*
X79170Y41979D01*
X79322Y42178D01*
X79521Y42330D01*
X79752Y42426D01*
X79850Y42438D01*
D02*
G37*
G36*
X70420Y41440D02*
X72340D01*
Y40560D01*
X70420D01*
Y41440D01*
D02*
G37*
G36*
Y40170D02*
X72340D01*
Y39290D01*
X70420D01*
Y40170D01*
D02*
G37*
G36*
X80000Y36807D02*
X80209Y36779D01*
X80403Y36699D01*
X80571Y36571D01*
X80699Y36403D01*
X80779Y36209D01*
X80807Y36000D01*
X80779Y35791D01*
X80699Y35597D01*
X80571Y35429D01*
X80403Y35301D01*
X80255Y35240D01*
Y34260D01*
X80403Y34199D01*
X80571Y34071D01*
X80699Y33903D01*
X80779Y33709D01*
X80807Y33500D01*
X80779Y33291D01*
X80699Y33097D01*
X80571Y32929D01*
X80403Y32801D01*
X80255Y32740D01*
Y28760D01*
X80403Y28699D01*
X80571Y28571D01*
X80699Y28403D01*
X80779Y28209D01*
X80807Y28000D01*
X80779Y27791D01*
X80699Y27597D01*
X80571Y27429D01*
X80403Y27301D01*
X80255Y27240D01*
Y26260D01*
X80403Y26199D01*
X80571Y26071D01*
X80699Y25903D01*
X80779Y25709D01*
X80807Y25500D01*
X80779Y25291D01*
X80699Y25097D01*
X80571Y24929D01*
X80403Y24801D01*
X80209Y24721D01*
X80000Y24693D01*
X79791Y24721D01*
X79597Y24801D01*
X79429Y24929D01*
X79301Y25097D01*
X79221Y25291D01*
X79193Y25500D01*
X79221Y25709D01*
X79301Y25903D01*
X79429Y26071D01*
X79597Y26199D01*
X79745Y26260D01*
Y27240D01*
X79597Y27301D01*
X79429Y27429D01*
X79301Y27597D01*
X79221Y27791D01*
X79193Y28000D01*
X79221Y28209D01*
X79301Y28403D01*
X79429Y28571D01*
X79597Y28699D01*
X79745Y28760D01*
Y32740D01*
X79597Y32801D01*
X79429Y32929D01*
X79301Y33097D01*
X79221Y33291D01*
X79193Y33500D01*
X79221Y33709D01*
X79301Y33903D01*
X79429Y34071D01*
X79597Y34199D01*
X79745Y34260D01*
Y35240D01*
X79597Y35301D01*
X79429Y35429D01*
X79301Y35597D01*
X79221Y35791D01*
X79193Y36000D01*
X79221Y36209D01*
X79301Y36403D01*
X79429Y36571D01*
X79597Y36699D01*
X79791Y36779D01*
X80000Y36807D01*
D02*
G37*
G36*
X79850Y18256D02*
X81150D01*
X81346Y18231D01*
X81528Y18155D01*
X81685Y18035D01*
X81805Y17878D01*
X81881Y17696D01*
X81906Y17500D01*
X81881Y17304D01*
X81805Y17122D01*
X81685Y16965D01*
X81528Y16845D01*
X81346Y16769D01*
X81150Y16744D01*
X79850D01*
X79654Y16769D01*
X79472Y16845D01*
X79315Y16965D01*
X79195Y17122D01*
X79119Y17304D01*
X79094Y17500D01*
X79119Y17696D01*
X79195Y17878D01*
X79315Y18035D01*
X79472Y18155D01*
X79654Y18231D01*
X79850Y18256D01*
D02*
G37*
G36*
Y15756D02*
X81150D01*
X81346Y15731D01*
X81528Y15655D01*
X81685Y15535D01*
X81805Y15378D01*
X81881Y15196D01*
X81906Y15000D01*
X81881Y14804D01*
X81805Y14622D01*
X81685Y14465D01*
X81528Y14345D01*
X81346Y14269D01*
X81150Y14244D01*
X79850D01*
X79654Y14269D01*
X79472Y14345D01*
X79315Y14465D01*
X79195Y14622D01*
X79119Y14804D01*
X79094Y15000D01*
X79119Y15196D01*
X79195Y15378D01*
X79315Y15535D01*
X79472Y15655D01*
X79654Y15731D01*
X79850Y15756D01*
D02*
G37*
G36*
Y13256D02*
X81150D01*
X81346Y13231D01*
X81528Y13155D01*
X81685Y13035D01*
X81805Y12878D01*
X81881Y12696D01*
X81906Y12500D01*
X81881Y12304D01*
X81805Y12122D01*
X81685Y11965D01*
X81528Y11845D01*
X81346Y11769D01*
X81150Y11744D01*
X79850D01*
X79654Y11769D01*
X79472Y11845D01*
X79315Y11965D01*
X79195Y12122D01*
X79119Y12304D01*
X79094Y12500D01*
X79119Y12696D01*
X79195Y12878D01*
X79315Y13035D01*
X79472Y13155D01*
X79654Y13231D01*
X79850Y13256D01*
D02*
G37*
G36*
Y10756D02*
X81150D01*
X81346Y10731D01*
X81528Y10655D01*
X81685Y10535D01*
X81805Y10378D01*
X81881Y10196D01*
X81906Y10000D01*
X81881Y9804D01*
X81805Y9622D01*
X81685Y9465D01*
X81528Y9345D01*
X81346Y9269D01*
X81150Y9244D01*
X79850D01*
X79654Y9269D01*
X79472Y9345D01*
X79315Y9465D01*
X79195Y9622D01*
X79119Y9804D01*
X79094Y10000D01*
X79119Y10196D01*
X79195Y10378D01*
X79315Y10535D01*
X79472Y10655D01*
X79654Y10731D01*
X79850Y10756D01*
D02*
G37*
G36*
X81200Y6759D02*
X81663Y6723D01*
X82114Y6614D01*
X82543Y6437D01*
X82939Y6194D01*
X83292Y5892D01*
X83594Y5539D01*
X83837Y5143D01*
X84014Y4714D01*
X84123Y4263D01*
X84159Y3800D01*
X84123Y3337D01*
X84014Y2886D01*
X83837Y2457D01*
X83594Y2061D01*
X83292Y1708D01*
X82939Y1406D01*
X82543Y1163D01*
X82114Y986D01*
X81663Y877D01*
X81200Y841D01*
X80737Y877D01*
X80286Y986D01*
X79857Y1163D01*
X79461Y1406D01*
X79108Y1708D01*
X78806Y2061D01*
X78563Y2457D01*
X78386Y2886D01*
X78277Y3337D01*
X78241Y3800D01*
X78277Y4263D01*
X78386Y4714D01*
X78563Y5143D01*
X78806Y5539D01*
X79108Y5892D01*
X79461Y6194D01*
X79857Y6437D01*
X80286Y6614D01*
X80737Y6723D01*
X81200Y6759D01*
D02*
G37*
G36*
X54950Y59230D02*
X55390D01*
Y58270D01*
X54950D01*
Y59230D01*
D02*
G37*
G36*
X55690D02*
X56130D01*
Y58270D01*
X55690D01*
Y59230D01*
D02*
G37*
G36*
X62035Y59300D02*
X62885D01*
Y57500D01*
X62035D01*
Y59300D01*
D02*
G37*
G36*
X61885Y54050D02*
X62310D01*
Y53150D01*
X61885D01*
Y54050D01*
D02*
G37*
G36*
X62610D02*
X63035D01*
Y53150D01*
X62610D01*
Y54050D01*
D02*
G37*
G36*
X61885Y52850D02*
X62310D01*
Y51950D01*
X61885D01*
Y52850D01*
D02*
G37*
G36*
X62610D02*
X63035D01*
Y51950D01*
X62610D01*
Y52850D01*
D02*
G37*
G36*
X60890Y44130D02*
X61850D01*
Y43690D01*
X60890D01*
Y44130D01*
D02*
G37*
G36*
X62150D02*
X63110D01*
Y43690D01*
X62150D01*
Y44130D01*
D02*
G37*
G36*
X60890Y43390D02*
X61850D01*
Y42950D01*
X60890D01*
Y43390D01*
D02*
G37*
G36*
X62150D02*
X63110D01*
Y42950D01*
X62150D01*
Y43390D01*
D02*
G37*
G36*
X47550Y35865D02*
Y35440D01*
X46650D01*
Y35865D01*
X47550D01*
D02*
G37*
G36*
X46650Y35140D02*
X47550D01*
Y34715D01*
X46650D01*
Y35140D01*
D02*
G37*
G36*
X43200Y30950D02*
X43750D01*
Y30150D01*
X43200D01*
Y30950D01*
D02*
G37*
G36*
X42350Y29850D02*
X42900D01*
Y29050D01*
X42350D01*
Y29850D01*
D02*
G37*
G36*
X43200D02*
X43750D01*
Y29050D01*
X43200D01*
Y29850D01*
D02*
G37*
G36*
X42900Y28691D02*
Y28155D01*
X42364D01*
X42368Y28188D01*
X42439Y28358D01*
X42551Y28504D01*
X42697Y28617D01*
X42867Y28687D01*
X42900Y28691D01*
D02*
G37*
G36*
X43200D02*
X43233Y28687D01*
X43403Y28617D01*
X43549Y28504D01*
X43661Y28358D01*
X43732Y28188D01*
X43736Y28155D01*
X43200D01*
Y28691D01*
D02*
G37*
G36*
X42364Y27855D02*
X42900D01*
Y27319D01*
X42867Y27323D01*
X42697Y27394D01*
X42551Y27506D01*
X42439Y27652D01*
X42368Y27822D01*
X42364Y27855D01*
D02*
G37*
G36*
X43200D02*
X43736D01*
X43732Y27822D01*
X43661Y27652D01*
X43549Y27506D01*
X43403Y27394D01*
X43233Y27323D01*
X43200Y27319D01*
Y27855D01*
D02*
G37*
G36*
X42420Y24520D02*
X44340D01*
Y23640D01*
X42420D01*
Y24520D01*
D02*
G37*
G36*
Y23250D02*
X44340D01*
Y22370D01*
X42420D01*
Y23250D01*
D02*
G37*
G36*
Y21980D02*
X44340D01*
Y21100D01*
X42420D01*
Y21980D01*
D02*
G37*
%LPD*%
D10*
X70080Y53000D02*
D03*
Y58400D02*
D03*
X68810D02*
D03*
X66270Y53000D02*
D03*
X65000D02*
D03*
X68810D02*
D03*
X67540D02*
D03*
X63730D02*
D03*
X62460D02*
D03*
X67540Y58400D02*
D03*
X66270D02*
D03*
X62460D02*
D03*
X65000D02*
D03*
X63730D02*
D03*
X26270Y5000D02*
D03*
X25000D02*
D03*
X23730D02*
D03*
X22460D02*
D03*
X21190D02*
D03*
X19920D02*
D03*
X18650D02*
D03*
X26270Y10400D02*
D03*
X25000D02*
D03*
X23730D02*
D03*
X22460D02*
D03*
X21190D02*
D03*
X19920D02*
D03*
X18650D02*
D03*
X18460Y21000D02*
D03*
X19730D02*
D03*
X21000D02*
D03*
X22270D02*
D03*
X23540D02*
D03*
X24810D02*
D03*
X26080D02*
D03*
X18460Y15600D02*
D03*
X19730D02*
D03*
X21000D02*
D03*
X22270D02*
D03*
X23540D02*
D03*
X24810D02*
D03*
X26080D02*
D03*
X40270Y54000D02*
D03*
X39000D02*
D03*
X37730D02*
D03*
X36460D02*
D03*
X35190D02*
D03*
X33920D02*
D03*
X32650D02*
D03*
X40270Y59400D02*
D03*
X39000D02*
D03*
X37730D02*
D03*
X36460D02*
D03*
X35190D02*
D03*
X33920D02*
D03*
X32650D02*
D03*
X69540Y22600D02*
D03*
X68270D02*
D03*
X67000D02*
D03*
X65730D02*
D03*
X64460D02*
D03*
X63190D02*
D03*
X61920D02*
D03*
X69540Y28000D02*
D03*
X68270D02*
D03*
X67000D02*
D03*
X65730D02*
D03*
X64460D02*
D03*
X63190D02*
D03*
X61920D02*
D03*
X23190Y44400D02*
D03*
X24460D02*
D03*
X25730D02*
D03*
X27000D02*
D03*
X28270D02*
D03*
X29540D02*
D03*
X30810D02*
D03*
X23190Y39000D02*
D03*
X24460D02*
D03*
X25730D02*
D03*
X27000D02*
D03*
X28270D02*
D03*
X29540D02*
D03*
X30810D02*
D03*
D11*
X38900Y5050D02*
D03*
Y6350D02*
D03*
Y7000D02*
D03*
Y7650D02*
D03*
Y8300D02*
D03*
Y8950D02*
D03*
X33000D02*
D03*
Y8300D02*
D03*
Y7650D02*
D03*
Y7000D02*
D03*
Y6350D02*
D03*
Y5700D02*
D03*
Y5050D02*
D03*
X38900Y5700D02*
D03*
D12*
X43380Y24080D02*
D03*
Y22810D02*
D03*
Y21540D02*
D03*
Y20270D02*
D03*
Y19000D02*
D03*
Y17730D02*
D03*
Y16460D02*
D03*
Y15190D02*
D03*
X34000Y24080D02*
D03*
Y22810D02*
D03*
Y21540D02*
D03*
Y20270D02*
D03*
Y19000D02*
D03*
Y17730D02*
D03*
Y16460D02*
D03*
Y15190D02*
D03*
X62000Y34650D02*
D03*
Y35920D02*
D03*
Y37190D02*
D03*
Y38460D02*
D03*
Y39730D02*
D03*
Y41000D02*
D03*
Y42270D02*
D03*
Y43540D02*
D03*
X71380Y34650D02*
D03*
Y35920D02*
D03*
Y37190D02*
D03*
Y38460D02*
D03*
Y39730D02*
D03*
Y41000D02*
D03*
Y42270D02*
D03*
Y43540D02*
D03*
X8000Y36190D02*
D03*
Y37460D02*
D03*
Y38730D02*
D03*
Y40000D02*
D03*
Y41270D02*
D03*
Y42540D02*
D03*
Y43810D02*
D03*
Y45080D02*
D03*
X17380Y36190D02*
D03*
Y37460D02*
D03*
Y38730D02*
D03*
Y40000D02*
D03*
Y41270D02*
D03*
Y42540D02*
D03*
Y43810D02*
D03*
Y45080D02*
D03*
D13*
X47700Y42910D02*
D03*
Y41640D02*
D03*
Y40370D02*
D03*
Y39100D02*
D03*
Y37830D02*
D03*
Y36560D02*
D03*
Y35290D02*
D03*
X42300Y42910D02*
D03*
Y41640D02*
D03*
Y40370D02*
D03*
Y39100D02*
D03*
Y37830D02*
D03*
Y36560D02*
D03*
Y35290D02*
D03*
X65000Y12080D02*
D03*
Y10810D02*
D03*
Y9540D02*
D03*
Y8270D02*
D03*
Y7000D02*
D03*
Y5730D02*
D03*
Y4460D02*
D03*
X59600Y12080D02*
D03*
Y10810D02*
D03*
Y9540D02*
D03*
Y8270D02*
D03*
Y7000D02*
D03*
Y5730D02*
D03*
Y4460D02*
D03*
D14*
X53000Y12750D02*
D03*
Y7000D02*
D03*
D15*
Y15000D02*
D03*
Y4750D02*
D03*
D16*
X57000Y11050D02*
D03*
Y8950D02*
D03*
X54000Y30050D02*
D03*
Y27950D02*
D03*
X49000Y12950D02*
D03*
Y15050D02*
D03*
X69000Y6050D02*
D03*
Y3950D02*
D03*
Y9950D02*
D03*
Y12050D02*
D03*
X53000Y23050D02*
D03*
Y20950D02*
D03*
X49000Y4950D02*
D03*
Y7050D02*
D03*
X45000Y4950D02*
D03*
Y7050D02*
D03*
X5000Y39000D02*
D03*
Y36900D02*
D03*
D17*
X61050Y18000D02*
D03*
X58950D02*
D03*
X69050D02*
D03*
X66950D02*
D03*
X43050Y30000D02*
D03*
X40950D02*
D03*
X12050Y24000D02*
D03*
X9950D02*
D03*
D18*
X54000Y38000D02*
D03*
X54950Y40300D02*
D03*
X53050D02*
D03*
D19*
X37350Y37000D02*
D03*
X24350Y30000D02*
D03*
X33000D02*
D03*
X13350D02*
D03*
D20*
X34000Y37000D02*
D03*
X21000Y30000D02*
D03*
X29650D02*
D03*
X10000D02*
D03*
D21*
X46650Y59380D02*
D03*
X47920D02*
D03*
X49190D02*
D03*
X50460D02*
D03*
X51730D02*
D03*
X53000D02*
D03*
X54270D02*
D03*
X55540D02*
D03*
X46650Y50000D02*
D03*
X47920D02*
D03*
X49190D02*
D03*
X50460D02*
D03*
X51730D02*
D03*
X53000D02*
D03*
X54270D02*
D03*
X55540D02*
D03*
D22*
X12000Y18000D02*
D03*
D23*
Y14650D02*
D03*
D24*
X9255Y33153D02*
X6389Y36018D01*
X6412Y38734D02*
X6389Y36018D01*
X7996Y38734D02*
X6412D01*
X66508Y23890D02*
X66133Y24265D01*
X24810Y15600D02*
X24643Y15767D01*
X14050Y29546D02*
Y30454D01*
X13668Y23698D02*
X13633Y23663D01*
X36699Y24057D02*
Y25687D01*
X13890Y23920D02*
X13668Y23698D01*
X36699Y25687D02*
X36582Y25804D01*
X13890Y23920D02*
Y29386D01*
X36352Y53892D02*
X36293Y53833D01*
X65933Y26623D02*
X65563Y26993D01*
X13890Y30614D02*
Y32759D01*
X8000Y38730D02*
X7996Y38734D01*
X65622Y27892D02*
X65563Y27833D01*
X35410Y22663D02*
Y22925D01*
X29192Y23692D02*
X29133Y23633D01*
X66133Y25344D02*
X65933Y25544D01*
X13496Y33153D02*
X9255D01*
X32635Y32442D02*
X30095Y34982D01*
X36460Y54000D02*
X36352Y53892D01*
X36168Y16789D02*
X35843Y16464D01*
X14050Y30454D02*
X13890Y30614D01*
X36168Y32124D02*
X35851Y32442D01*
X65730Y28000D02*
X65622Y27892D01*
X29445Y36846D02*
X28270Y38153D01*
Y39000D01*
X34004Y16464D02*
X34000Y16460D01*
X36866Y23890D02*
X36699Y24057D01*
X65933Y25544D02*
Y26623D01*
X30413Y50222D02*
X30095Y49904D01*
X36293Y51174D02*
X35341Y50222D01*
X29133Y19304D02*
X28934Y19104D01*
X29300Y23800D02*
X29192Y23692D01*
X24643Y15767D02*
Y18529D01*
X35410Y22925D02*
Y30617D01*
X35518Y22925D02*
X35410D01*
X14050Y29546D02*
X13890Y29386D01*
X36168Y16789D02*
Y25804D01*
X25218Y19104D02*
X24643Y18529D01*
X36582Y25804D02*
X36168D01*
Y32124D01*
X13633Y23567D02*
Y23663D01*
X35851Y32442D02*
X32635D01*
X30095Y34982D02*
Y49904D01*
X13800Y23400D02*
X13633Y23567D01*
X35341Y50222D02*
X30413D01*
X29133Y19304D02*
Y23633D01*
X65563Y26993D02*
Y27833D01*
X36293Y51174D02*
Y53833D01*
X28934Y19104D02*
X25218D01*
X13890Y32759D02*
X13496Y33153D01*
X35843Y16464D02*
X34004D01*
X66133Y24265D02*
Y25344D01*
X64402Y24942D02*
Y24950D01*
X64460Y24883D02*
X64402Y24942D01*
X61650Y7884D02*
Y15032D01*
Y7884D02*
X60766Y7000D01*
X59600D01*
X61650Y15032D02*
X59929Y16753D01*
X61000Y10000D02*
Y10170D01*
X60360Y10810D01*
X59600D01*
X58323D01*
X69050Y12100D02*
Y18000D01*
X69150Y18100D02*
X69050Y18000D01*
X70300Y18100D02*
X69150D01*
X71105Y17500D02*
X69911Y16306D01*
X73000Y17500D02*
X71105D01*
X69911Y11483D02*
Y16306D01*
X51115Y4017D02*
Y4750D01*
X51232Y3900D02*
X51115Y4017D01*
X53117Y3900D02*
X51232D01*
X53000Y4017D02*
Y4750D01*
X59600Y4460D02*
X57560D01*
X57000Y3900D01*
X53117D02*
X53000Y4017D01*
X57000Y3900D02*
X53117D01*
X25300Y22281D02*
Y22500D01*
Y22281D02*
X24810Y21791D01*
X24140Y12841D02*
Y27624D01*
X23540Y21000D02*
Y32114D01*
X25730Y34304D02*
X23540Y32114D01*
X25741Y29224D02*
X24140Y27624D01*
X31397Y22297D02*
X31300Y22200D01*
X31397Y22297D02*
Y22693D01*
X31514Y22810D02*
X31397Y22693D01*
X32500Y22810D02*
X31514D01*
X30650Y19250D02*
Y23050D01*
X34943Y23357D02*
X30957D01*
X30650Y23050D01*
X32600Y22100D02*
X32400D01*
X32700Y22200D02*
X32600Y22100D01*
X32500Y22810D02*
X32400Y22710D01*
Y22100D02*
Y22710D01*
X40100Y29900D02*
X39817D01*
X40850D02*
X40100D01*
X40950Y20614D02*
X40100Y21464D01*
Y29900D01*
X40950Y30000D02*
X40850Y29900D01*
X39700Y30017D02*
Y35665D01*
X39817Y29900D02*
X39700Y30017D01*
Y35665D02*
X38365Y37000D01*
X52060Y23560D02*
X49286D01*
X55281Y26781D02*
X52060Y23560D01*
X55281Y26781D02*
Y38178D01*
X40984Y6059D02*
Y9484D01*
X49439Y17939D02*
Y22300D01*
Y17939D02*
X40984Y9484D01*
X45470Y15826D02*
Y15826D01*
X48143Y18500D02*
X45470Y15826D01*
X48143Y18500D02*
Y23611D01*
X48956Y18391D02*
X40574Y10009D01*
X48956Y18391D02*
Y23230D01*
X47900Y6517D02*
Y15783D01*
X48017Y6400D02*
X47900Y6517D01*
X48800Y15900D02*
X48017D01*
X49830Y6400D02*
X48017D01*
Y15900D02*
X47900Y15783D01*
X49000Y15700D02*
X48800Y15900D01*
X49000Y15050D02*
Y15700D01*
X45470Y15826D02*
X44060Y14416D01*
X40257D01*
X49439Y22300D02*
Y22656D01*
X50100Y21600D02*
Y22183D01*
X49983Y22300D01*
X49439D01*
X50200Y21500D02*
X50100Y21600D01*
X49921Y12975D02*
Y19721D01*
X54193Y21600D02*
X51800D01*
X49921Y19721D01*
X40625Y5700D02*
X38900D01*
X40984Y6059D02*
X40625Y5700D01*
X49832Y23050D02*
X49439Y22656D01*
X53000Y23050D02*
X49832D01*
X57758Y18035D02*
X54193Y21600D01*
X58950Y18000D02*
X58915Y18035D01*
X58100D02*
X57758D01*
X58915D02*
X58100D01*
Y14620D02*
Y18035D01*
X58950Y13770D02*
X58100Y14620D01*
X69050Y12100D02*
X69000Y12050D01*
X10956Y16400D02*
X10200D01*
X12000Y15356D02*
X10956Y16400D01*
X13800Y17823D02*
X9100Y22523D01*
X13800Y12300D02*
Y17823D01*
X15550Y24103D02*
X14895Y24759D01*
X15550Y21587D02*
Y24103D01*
Y21587D02*
X13714Y19750D01*
X15900Y24771D02*
X15463Y25208D01*
X15900Y15214D02*
Y24771D01*
X18650Y12464D02*
X15900Y15214D01*
X14900Y23000D02*
Y23771D01*
X14463Y24208D01*
X9100Y22523D02*
Y23800D01*
X9950Y24000D02*
X9300D01*
X9100Y23800D01*
X9950Y24000D02*
Y26964D01*
X32170Y17730D02*
X30650Y19250D01*
X34000Y17730D02*
X32170D01*
X35060Y23474D02*
X34943Y23357D01*
X35060Y23474D02*
Y29430D01*
X33000Y8300D02*
X25481D01*
X33000Y7650D02*
X25512D01*
X25481Y8300D02*
X24369Y9412D01*
X25512Y7650D02*
X24471Y6608D01*
X67000Y26075D02*
Y28000D01*
Y26075D02*
X67000Y26075D01*
X69540Y24652D02*
X68270Y25922D01*
Y28000D01*
Y22600D02*
Y24027D01*
X68743Y24500D02*
X68270Y24027D01*
X71380Y37190D02*
X71375Y37195D01*
X68405D02*
X68400Y37200D01*
X71375Y37195D02*
X68405D01*
X69352Y55657D02*
Y61148D01*
X68300Y62200D02*
X49190D01*
X69352Y61148D02*
X68300Y62200D01*
X68810Y58400D02*
X68800Y58410D01*
Y60324D01*
X68683Y60441D01*
X68810Y58400D02*
Y58866D01*
X43114Y59882D02*
X41396Y61600D01*
X38265D02*
X37678Y61013D01*
X41396Y61600D02*
X38265D01*
X42411Y39113D02*
X42300Y40090D01*
X54824Y55214D02*
X53000Y57037D01*
X49190Y59380D02*
Y62200D01*
X33749D02*
X32650Y61101D01*
X49190Y62200D02*
X33749D01*
X35190Y51578D02*
X34612Y51000D01*
X25000D01*
X35190Y51578D02*
Y54000D01*
X60000Y40000D02*
Y41000D01*
X60100Y41100D02*
X60000Y41000D01*
X60100Y41100D02*
X59328D01*
X62000Y41000D02*
X61900Y41100D01*
X60100D01*
X59328D02*
X59228Y41000D01*
X54925Y27294D02*
Y30025D01*
X55281Y38178D02*
X53706Y39753D01*
X54925Y27294D02*
X51547Y23916D01*
X54925Y30025D02*
X54900Y30050D01*
X54275D01*
X51547Y23916D02*
X48448D01*
X57008Y20652D02*
Y40954D01*
X57364Y21642D02*
Y34160D01*
X57732Y21274D02*
X57364Y21642D01*
X60393Y37190D02*
X57364Y34160D01*
X57452Y20207D02*
X57008Y20652D01*
X59904Y20207D02*
X57452D01*
X61900Y28020D02*
Y31200D01*
X61920Y28000D02*
X61900Y28020D01*
X68883Y7200D02*
X68108D01*
X69000Y6050D02*
X69000Y6050D01*
Y7083D01*
X68883Y7200D01*
X68108D02*
Y9439D01*
X68100Y9725D02*
X67015Y10810D01*
X68108Y9439D02*
X68100Y9446D01*
Y9725D01*
X62700Y5681D02*
X62119Y5100D01*
X57714D01*
X57000Y5814D01*
Y8950D02*
X57000Y8950D01*
X57000Y5814D02*
Y8950D01*
X58323Y10810D02*
X58083Y11050D01*
X52106Y10700D02*
Y11160D01*
Y7507D02*
Y10700D01*
X50252Y6822D02*
Y10583D01*
X50369Y10700D02*
X50252Y10583D01*
X52106Y10700D02*
X50369D01*
X69000Y3000D02*
X68000D01*
X73648D02*
X69000D01*
X69000Y3950D02*
X69000Y3950D01*
Y3000D02*
Y3950D01*
X68000Y3000D02*
X67574Y3426D01*
Y9666D01*
X74915Y4267D02*
X73648Y3000D01*
X49000Y4026D02*
Y4950D01*
X48141Y3909D02*
X45537Y6513D01*
X48883Y3909D02*
X48141D01*
X49000Y4026D02*
X48883Y3909D01*
X45237Y7050D02*
X45000D01*
X45537Y6750D02*
X45237Y7050D01*
X45537Y6513D02*
Y6750D01*
X50252Y6822D02*
X49830Y6400D01*
X10000Y30000D02*
X5117D01*
X5000Y30117D02*
Y37035D01*
X5117Y30000D02*
X5000Y30117D01*
X8000Y40000D02*
X8000Y40000D01*
X5000Y39000D02*
Y39883D01*
X8000Y40000D02*
X5117D01*
X5000Y39883D01*
X39380Y17998D02*
X38517D01*
X40396D02*
X39380D01*
X41616Y19644D02*
Y34344D01*
Y19217D02*
Y19644D01*
X41031Y19649D01*
X44460Y19623D02*
X41616Y19644D01*
X47920Y55788D02*
Y58333D01*
Y55310D02*
Y55788D01*
X49190Y54040D02*
X47920Y55310D01*
X65730Y24541D02*
Y24947D01*
Y22600D02*
Y24541D01*
X49050Y34881D02*
Y40535D01*
Y27794D02*
Y34881D01*
X42412Y39100D02*
X42411Y39113D01*
X53000Y56448D02*
Y57037D01*
X39000Y41963D02*
Y53024D01*
X41260Y41640D02*
X39322D01*
X57008Y40954D02*
X55642Y39588D01*
X58324Y42270D02*
X57008Y40954D01*
X36840Y38470D02*
X32345D01*
X44694D02*
X36840D01*
X38900Y12308D02*
Y13652D01*
X40574Y10009D02*
Y12308D01*
X64132Y8384D02*
X63891Y8625D01*
X64246Y8270D02*
X64132Y8384D01*
X74150Y10000D02*
Y11741D01*
X63185Y17918D02*
X61050D01*
X13350Y27629D02*
X12050Y26329D01*
Y24017D02*
Y26329D01*
Y24000D02*
Y24017D01*
X12685D02*
X12050D01*
X54275Y30050D02*
Y37268D01*
X26694Y29326D02*
X26401Y29619D01*
X47966Y42910D02*
Y45328D01*
X42276Y31231D02*
Y35290D01*
X20178Y15889D02*
X19730D01*
X44435Y17730D02*
X43380D01*
X44460Y19623D02*
X44435Y17730D01*
X41031Y19649D02*
X39380Y17998D01*
X26080Y15600D02*
Y17998D01*
X63183Y37190D02*
X62000D01*
X63815Y37822D02*
X63183Y37190D01*
X63815Y37822D02*
Y41315D01*
X70080Y47580D02*
Y53000D01*
X35721Y6350D02*
X33000D01*
X42300Y36560D02*
X41412D01*
X41300Y36448D01*
Y34660D02*
Y36448D01*
X41616Y34344D02*
X41300Y34660D01*
X41616Y19217D02*
X40396Y17998D01*
X44582Y36560D02*
X42300D01*
X45121Y37098D02*
X44582Y36560D01*
X48675Y37098D02*
X45121D01*
X48700Y37124D02*
X48675Y37098D01*
X48700Y37124D02*
Y40017D01*
X48347Y40370D01*
X47700D01*
X67000Y21452D02*
Y22600D01*
Y21452D02*
X57732Y21274D01*
X62000Y37190D02*
X60393D01*
X65730Y24947D02*
X65187Y25491D01*
Y44397D01*
X68810Y48020D02*
X65187Y44397D01*
X68810Y48020D02*
Y53000D01*
X49190Y50000D02*
Y54040D01*
X45481Y37830D02*
X42300D01*
X45502Y37810D02*
X45481Y37830D01*
X60630Y35920D02*
X58278Y33568D01*
X62000Y35920D02*
X60630D01*
X43515Y40370D02*
X42300D01*
X44053Y40908D02*
X43515Y40370D01*
X48677Y40908D02*
X44053D01*
X49050Y40535D02*
X48677Y40908D01*
X45172Y17515D02*
Y27794D01*
Y17515D02*
X44841Y17185D01*
X42327D01*
X42301Y17210D01*
Y18975D01*
X42327Y19000D02*
X42301Y18975D01*
X43380Y19000D02*
X42327D01*
X49050Y27794D02*
X45172D01*
X50252Y36082D02*
X49050Y34881D01*
X50252Y36082D02*
Y38546D01*
X42300Y40090D02*
Y40370D01*
X42412Y39100D02*
X42300D01*
X53000Y57037D02*
Y59380D01*
X54824Y41416D02*
Y55214D01*
Y41416D02*
X54722Y41315D01*
X17380Y38730D02*
X16343D01*
X16317Y38755D01*
Y40604D01*
X16343Y40629D02*
X16317Y40604D01*
X19746Y40629D02*
X16343D01*
X22388Y37987D02*
X19746Y40629D01*
X23709Y37987D02*
X22388D01*
X23734Y38013D02*
X23709Y37987D01*
X23734Y38013D02*
Y42234D01*
X23897Y42397D02*
X23734Y42234D01*
X25309Y42397D02*
X23897D01*
X26299Y41406D02*
X25309Y42397D01*
X26299Y31167D02*
Y41406D01*
X26668Y30799D02*
X26299Y31167D01*
X33691Y30799D02*
X26668D01*
X35060Y29430D02*
X33691Y30799D01*
X39322Y41640D02*
X39000Y41963D01*
X50460Y48947D02*
Y50000D01*
Y48947D02*
X50142Y48630D01*
X48893D01*
X48575Y48947D01*
Y51068D01*
X48245Y51399D01*
X40626D01*
X39000Y53024D01*
Y54000D01*
X59929Y16753D02*
X59904Y20207D01*
X62000Y42270D02*
X58324D01*
X55642Y39588D02*
X54417D01*
X54072Y39933D01*
Y42473D01*
X52436Y44109D01*
Y60416D01*
X52411Y60441D01*
X49921D01*
X49896Y60416D01*
Y51074D02*
Y60416D01*
X50460Y50510D02*
X49896Y51074D01*
X50460Y50000D02*
Y50510D01*
X10932Y37460D02*
X8000D01*
X14463Y33929D02*
X10932Y37460D01*
X14463Y24208D02*
Y33929D01*
X35410Y21929D02*
Y22663D01*
X35021Y21540D02*
X34000D01*
X35410Y21929D02*
X35021Y21540D01*
X33920Y54000D02*
Y54980D01*
X33895Y55005D01*
X24191D01*
X21626Y52440D01*
Y43321D02*
Y52440D01*
X22201Y42747D02*
X21626Y43321D01*
X25687Y42747D02*
X22201D01*
X27620Y40813D02*
X25687Y42747D01*
X27620Y36413D02*
Y40813D01*
X32599Y31434D02*
X27620Y36413D01*
X34592Y31434D02*
X32599D01*
X35410Y30617D02*
X34592Y31434D01*
X13365Y42540D02*
X8000D01*
X14895Y41010D02*
X13365Y42540D01*
X14895Y24759D02*
Y41010D01*
X24810Y19750D02*
Y21000D01*
X37526Y22798D02*
X36993Y22265D01*
X37526Y22798D02*
Y33644D01*
X35120Y36050D01*
X32370D01*
X32027Y36393D01*
Y38153D01*
X32345Y38470D02*
X32027Y38153D01*
X45324Y39100D02*
X44694Y38470D01*
X47700Y39100D02*
X45324D01*
X24810Y21000D02*
Y21791D01*
X40092Y6350D02*
X38900D01*
X40574Y6833D02*
X40092Y6350D01*
X40574Y6833D02*
Y10009D01*
X49286Y23560D02*
X48956Y23230D01*
X53706Y39753D02*
Y41086D01*
X51166Y43626D01*
Y57830D01*
X50460Y58536D01*
Y59380D01*
X38900Y13652D02*
X38898Y13654D01*
X35342Y17210D02*
Y18568D01*
X34910Y19000D01*
X34000D01*
X21190Y9362D02*
Y10400D01*
X22943Y7609D02*
X21190Y9362D01*
X24191Y7609D02*
X22943D01*
X63064Y3621D02*
Y7315D01*
X64132Y8384D02*
X63064Y7315D01*
X72604Y38460D02*
X71380D01*
X72629Y38435D02*
X72604Y38460D01*
X72629Y35397D02*
Y38435D01*
Y35397D02*
X72604Y35371D01*
X70343D01*
X70318Y35346D01*
Y28361D02*
Y35346D01*
X74915Y23763D02*
X70318Y28361D01*
X74915Y4267D02*
Y23763D01*
X62700Y5681D02*
Y9881D01*
X63629Y10810D02*
X62700Y9881D01*
X65000Y10810D02*
X63629D01*
X64323Y7000D02*
X63764Y6441D01*
X65000Y7000D02*
X64323D01*
X24369Y9412D02*
Y12613D01*
X24140Y12841D01*
X11440Y40375D02*
X11065Y40000D01*
X8000D01*
X59827Y38460D02*
X57924Y40364D01*
X62000Y38460D02*
X59827D01*
X35189Y4739D02*
X34878Y5050D01*
X33000D01*
X12000Y16347D02*
Y18000D01*
Y16347D02*
X11999Y16347D01*
X74150Y10000D02*
X73000D01*
X74509Y12100D02*
X74150Y11741D01*
X74509Y12100D02*
Y20093D01*
X73277Y21325D01*
X69857D01*
X69540Y21642D01*
Y22600D01*
X49921Y12975D02*
X49000Y12950D01*
X53000Y12054D02*
Y12750D01*
X12050Y26329D02*
Y26913D01*
X54000Y37543D02*
Y38000D01*
X54275Y37268D02*
X54000Y37543D01*
X54275Y30050D02*
X54000D01*
X26401Y29619D02*
X26020Y30000D01*
X26401Y23078D02*
Y29619D01*
X33920Y57520D02*
Y59400D01*
X35850Y58180D02*
Y58485D01*
X36460Y59095D02*
X35850Y58485D01*
X36460Y59095D02*
Y59400D01*
X29540Y39000D02*
Y42225D01*
X28668Y43097D01*
X22867D01*
X22500Y43463D01*
Y51000D01*
X27000Y39000D02*
Y40462D01*
X26960Y40502D01*
X24460Y37875D02*
Y39000D01*
Y37875D02*
X24344Y37759D01*
X29650Y30000D02*
X27773D01*
X12000Y14650D02*
Y15356D01*
X64460Y22600D02*
Y24883D01*
X36078Y6707D02*
X35721Y6350D01*
X67000Y21452D02*
X66314Y20766D01*
X38900Y8950D02*
Y12308D01*
X20000Y61000D02*
Y62283D01*
X20571Y62854D02*
X20000Y62283D01*
X27179Y62854D02*
X20571D01*
X33515Y56517D02*
X27179Y62854D01*
X38758Y56517D02*
X33515D01*
X40270Y55005D02*
X38758Y56517D01*
X40270Y54000D02*
Y55005D01*
X22500Y61000D02*
Y62473D01*
X22527Y62500D02*
X22500Y62473D01*
X25529Y62500D02*
X22527D01*
X32046Y55983D02*
X25529Y62500D01*
X37259Y55983D02*
X32046D01*
X37730Y55513D02*
X37259Y55983D01*
X37730Y54000D02*
Y55513D01*
X42300Y35290D02*
X42276D01*
X42301Y31206D02*
X42276Y31231D01*
X39838Y7000D02*
X38900D01*
X39863Y7025D02*
X39838Y7000D01*
X39863Y7025D02*
Y14023D01*
X40257Y14416D02*
X39863Y14023D01*
X48448Y23916D02*
X48143Y23611D01*
X53000Y12054D02*
X52106Y11160D01*
X58430Y7507D02*
X58303D01*
X59192Y8270D02*
X58430Y7507D01*
X59600Y8270D02*
X59192D01*
X38365Y37000D02*
X37350D01*
X67574Y9666D02*
X67092Y10149D01*
X63917D01*
X63891Y10124D01*
Y8625D02*
Y10124D01*
X65000Y8270D02*
X64246D01*
X42300Y41640D02*
X41260D01*
X40371Y40751D01*
Y40642D02*
Y40751D01*
X19156Y39257D02*
X18629Y38730D01*
X17380D01*
X48397Y55310D02*
X47920Y55788D01*
X68810Y54345D02*
X67845Y55310D01*
X68810Y53000D02*
Y54345D01*
X67540Y57511D02*
Y58400D01*
Y57511D02*
X65720Y55691D01*
Y47944D02*
Y55691D01*
Y47944D02*
X65111Y47335D01*
X24686Y41721D02*
Y41747D01*
X25004Y41404D02*
X24686Y41721D01*
X25004Y36032D02*
Y41404D01*
Y36032D02*
X22997Y34025D01*
Y16610D02*
Y34025D01*
X23540Y16067D02*
X22997Y16610D01*
X23540Y15600D02*
Y16067D01*
X32650Y59400D02*
Y61101D01*
X70080Y54929D02*
X69352Y55657D01*
X70080Y53000D02*
Y54929D01*
X64160Y42270D02*
X62000D01*
X64465Y41965D02*
X64160Y42270D01*
X64465Y40665D02*
Y41965D01*
Y40665D02*
X64460Y40660D01*
Y28000D02*
Y40660D01*
X37730Y59400D02*
Y60339D01*
X37678Y60391D01*
Y61013D01*
X53096Y56352D02*
X53000Y56448D01*
X38695Y60670D02*
X38339D01*
X38719Y60646D02*
X38695Y60670D01*
X38719Y60131D02*
Y60646D01*
X39000Y59850D02*
X38719Y60131D01*
X39000Y59400D02*
Y59850D01*
X47700Y36560D02*
X46284D01*
X46162Y36438D01*
X53477Y36870D02*
Y37274D01*
X53450Y37302D01*
Y39467D01*
X53050Y39867D01*
Y40300D01*
X24471Y3977D02*
Y6608D01*
Y3977D02*
X24115Y3621D01*
X17409D01*
X14844Y6187D01*
Y17464D01*
X13041Y19268D01*
Y23662D01*
X12685Y24017D01*
X47966Y42910D02*
X47700D01*
X15463Y25208D02*
Y45328D01*
X18650Y10400D02*
Y12464D01*
X33000Y30000D02*
X31684D01*
X31010Y29326D01*
X26694D01*
X26020Y30000D02*
X24350D01*
X34000Y22810D02*
X32500D01*
X34856Y37000D02*
X34000D01*
X37882Y33974D02*
X34856Y37000D01*
X37882Y21300D02*
Y33974D01*
Y21300D02*
X37094Y20512D01*
Y9133D02*
Y20512D01*
X37927Y8300D02*
X37094Y9133D01*
X38900Y8300D02*
X37927D01*
X61050Y17918D02*
Y18000D01*
X63589Y17515D02*
X63185Y17918D01*
X63589Y15481D02*
Y17515D01*
X67981Y11089D02*
X63589Y15481D01*
X69517Y11089D02*
X67981D01*
X69911Y11483D02*
X69517Y11089D01*
X36310Y39000D02*
X30810D01*
X36840Y38470D02*
X36310Y39000D01*
X22270Y15600D02*
Y19436D01*
X21727Y19979D01*
Y24627D01*
X21956Y24856D02*
X21727Y24627D01*
X21956Y24856D02*
Y37657D01*
X19613Y40000D01*
X17380D01*
X35190Y57879D02*
Y59400D01*
X35545Y57524D02*
X35190Y57879D01*
X47111Y57524D02*
X35545D01*
X47920Y58333D02*
X47111Y57524D01*
X47920Y58333D02*
Y59380D01*
X68683Y60441D02*
X53025D01*
X53000Y60416D01*
Y59380D02*
Y60416D01*
X25730Y34304D02*
Y39000D01*
X67015Y10810D02*
X65000D01*
X66308Y12080D02*
X65000D01*
X68438Y9950D02*
X66308Y12080D01*
X69000Y9950D02*
X68438D01*
X65730Y24541D02*
X63841Y26430D01*
Y35183D01*
X63104Y35920D01*
X62000D01*
X19730Y15600D02*
Y15889D01*
X20356Y16067D02*
X20178Y15889D01*
X20356Y16067D02*
Y29975D01*
X20381Y30000D02*
X20356Y29975D01*
X21000Y30000D02*
X20381D01*
X58083Y11050D02*
X57000D01*
X47700Y37830D02*
Y39100D01*
X22270Y13515D02*
Y15600D01*
Y13515D02*
X21190Y12435D01*
Y10400D02*
Y12435D01*
Y10400D02*
X19920D01*
X10000Y27014D02*
Y30000D01*
Y27014D02*
X9950Y26964D01*
X69540Y22600D02*
Y24652D01*
X49000Y7050D02*
Y12950D01*
X80000Y33500D02*
Y36000D01*
Y28000D02*
Y33500D01*
Y25500D02*
Y28000D01*
X50915Y4950D02*
X49000D01*
X51115Y4750D02*
X50915Y4950D01*
X13350Y27629D02*
Y30000D01*
X63190Y22600D02*
Y28000D01*
X61920D01*
D25*
X45000Y3976D02*
Y4950D01*
X32750Y3800D02*
X31989Y4561D01*
X44824Y3800D02*
X32750D01*
X45000Y3976D02*
X44824Y3800D01*
X62200Y7391D02*
X60539Y5730D01*
X62200Y15241D02*
X60350Y17091D01*
X62200Y7391D02*
Y15241D01*
X82000Y41776D02*
Y46724D01*
X81724Y41500D02*
X80000D01*
X82000Y41776D02*
X81724Y41500D01*
X81824Y46900D02*
X73676D01*
X82000Y46724D02*
X81824Y46900D01*
X73500Y47076D02*
Y59924D01*
X73676Y46900D02*
X73500Y47076D01*
X73324Y60100D02*
X70256D01*
X73500Y59924D02*
X73324Y60100D01*
X70080Y58400D02*
Y59924D01*
X70256Y60100D02*
X70080Y59924D01*
Y57994D02*
Y58400D01*
X70205Y57869D02*
X70080Y57994D01*
X44000Y30000D02*
X43050D01*
X44200D02*
X44000D01*
X43923Y29923D01*
X43050Y29750D02*
Y30000D01*
X43300Y29500D02*
X43050Y29750D01*
X43923Y28878D02*
Y29923D01*
Y28878D02*
X43050Y28005D01*
X44500Y30300D02*
Y33831D01*
Y30300D02*
X44200Y30000D01*
X45959Y35290D02*
X44500Y33831D01*
X47564Y18854D02*
Y23794D01*
Y18854D02*
X43900Y15190D01*
X41451D01*
X30903Y24080D02*
X29800Y22977D01*
X29876Y8950D02*
X29700Y9126D01*
X33000Y8950D02*
X29876D01*
X29700Y9126D02*
Y9818D01*
X29800Y9918D02*
Y22977D01*
X33120Y24080D02*
X30903D01*
X29800Y9918D02*
X29700Y9818D01*
X26081Y19800D02*
X26080Y19801D01*
X28300Y19800D02*
X26081D01*
X29598Y9920D02*
X26270D01*
X29700Y9818D02*
X29598Y9920D01*
X73400Y44287D02*
X68641D01*
X79443D02*
X73400D01*
Y45914D02*
X73224Y46090D01*
X73400Y44287D02*
Y45914D01*
X73224Y46090D02*
X69695D01*
X80000Y44000D02*
X79729D01*
X79443Y44287D01*
X67700Y23773D02*
X67600Y23673D01*
X67700Y23773D02*
Y26914D01*
X67695Y26919D01*
Y28874D01*
X68641Y44287D02*
X67700Y43345D01*
Y28879D02*
X67695Y28874D01*
X67700Y28879D02*
Y43345D01*
X18700Y52296D02*
X15000Y55996D01*
X20000Y50992D02*
X18876D01*
X18700Y51168D01*
Y52296D01*
X34478Y52950D02*
X33232D01*
X34504Y52975D02*
X34478Y52950D01*
X34504Y52975D02*
Y55583D01*
X56276Y43540D02*
X56100Y43364D01*
Y41119D02*
X55396Y40416D01*
X62000Y43540D02*
X56276D01*
X56100Y41119D02*
Y43364D01*
X54950Y40300D02*
Y40416D01*
X55396D02*
X54950D01*
X53884Y27950D02*
Y29021D01*
X66400Y5906D02*
X66224Y5730D01*
Y9540D02*
X65000D01*
X66224Y5730D02*
X65000D01*
X66400Y5906D02*
Y9364D01*
X66224Y9540D01*
X74204Y1996D02*
X66876D01*
X66700Y4284D02*
X66524Y4460D01*
X66876Y1996D02*
X66700Y2171D01*
X66524Y4460D02*
X65000D01*
X66700Y2171D02*
Y4284D01*
X58250Y9500D02*
Y9950D01*
Y8622D02*
Y9500D01*
X59600Y9540D02*
X58290D01*
X58250Y9500D01*
Y9950D02*
X58200Y10000D01*
X56497D01*
X56043Y10454D01*
X58250Y8622D02*
X57603Y7976D01*
X18460Y16067D02*
X17892D01*
X57050Y58866D02*
X55540D01*
X66950Y18000D02*
X65785D01*
X65610Y18176D01*
Y19034D01*
X67600Y21024D02*
Y23673D01*
Y21024D02*
X65610Y19034D01*
X60526D01*
X60350Y18858D01*
Y17091D02*
Y18858D01*
X45000Y4950D02*
X43666D01*
X46917Y8538D02*
X43666D01*
Y4950D02*
X43491Y5126D01*
X43666Y8538D02*
X43491Y8362D01*
Y5126D02*
Y8362D01*
X46917Y6736D02*
Y8538D01*
X47652Y6000D02*
X46917Y6736D01*
X51767Y6000D02*
X47652D01*
X52767Y7000D02*
X51767Y6000D01*
X20000Y43245D02*
Y47919D01*
Y50992D01*
Y42254D02*
Y43245D01*
X33996Y8950D02*
X33000D01*
X33996Y7000D02*
X33000D01*
X34632D02*
X33996D01*
X56500Y12080D02*
X53940D01*
X53528Y11668D01*
X36758Y55583D02*
X34504D01*
X31659Y44388D02*
X30810D01*
X36612D02*
X31659D01*
X21016Y15600D02*
Y19699D01*
X21000Y14569D02*
Y15600D01*
Y14543D02*
Y14569D01*
X38028Y5050D02*
X35885D01*
X43343Y42910D02*
X42300D01*
X44384D02*
X43343D01*
X46680Y41640D02*
X45654D01*
X75728Y37228D02*
X73150Y34650D01*
X53071Y27950D02*
X51720D01*
X54000D02*
X53884D01*
X53071D01*
X9008Y45080D02*
X8000D01*
X11517Y47589D02*
X9008Y45080D01*
X19670Y47589D02*
X11517D01*
X20000Y47919D02*
X19670Y47589D01*
X18460Y15600D02*
Y16067D01*
X17892D02*
X17867Y16093D01*
Y33542D01*
X15911Y35498D01*
Y41340D01*
X16495Y41924D02*
X15911Y41340D01*
X19670Y41924D02*
X16495D01*
X20000Y42254D02*
X19670Y41924D01*
X40270Y59400D02*
Y60289D01*
X39864Y60695D01*
X39380D01*
X34000Y24080D02*
X33120D01*
X32700Y24500D01*
Y27091D01*
X69695Y46090D02*
X69378Y46408D01*
Y49798D01*
X69403Y49824D02*
X69378Y49798D01*
X69403Y49824D02*
Y55040D01*
X68041Y56402D01*
X67143D01*
X66863Y56123D01*
Y47017D02*
Y56123D01*
Y47017D02*
X63386Y43540D01*
X62000D01*
X62460Y44000D02*
Y53000D01*
Y44000D02*
X62000Y43540D01*
X18460Y13874D02*
Y15600D01*
X18552Y13781D02*
X18460Y13874D01*
X26270Y13099D02*
X25588Y13781D01*
X26270Y10400D02*
Y13099D01*
X53000Y7000D02*
X52767D01*
X53000Y14157D02*
Y15000D01*
X53528Y13629D02*
X53000Y14157D01*
X53528Y11668D02*
Y13629D01*
Y11668D02*
X53000Y11140D01*
Y7000D02*
Y11140D01*
X73150Y34650D02*
X71380D01*
X53071Y27950D02*
X52775Y28246D01*
Y39045D01*
X50180Y41640D01*
X47700D01*
X30810Y44388D02*
Y44400D01*
X37069Y38978D02*
X31659Y44388D01*
X40805Y38978D02*
X37069D01*
X41250Y39423D02*
X40805Y38978D01*
X41250Y39423D02*
Y41035D01*
X41275Y41061D02*
X41250Y41035D01*
X43343Y41061D02*
X41275D01*
X43368Y41086D02*
X43343Y41061D01*
X43368Y41086D02*
Y42885D01*
X43343Y42910D01*
X37044Y55298D02*
X36758Y55583D01*
X37044Y44820D02*
Y55298D01*
Y44820D02*
X36612Y44388D01*
X17500Y59743D02*
Y61000D01*
X21659Y55583D02*
X17500Y59743D01*
X34504Y55583D02*
X21659D01*
X33232Y52950D02*
X32650Y53532D01*
Y54000D01*
X26080Y19801D02*
Y21000D01*
X38028Y5050D02*
X37094Y5983D01*
X38900Y5050D02*
X38028D01*
X51720Y27950D02*
X47564Y23794D01*
X59600Y5730D02*
X58608D01*
X57603Y6734D01*
Y7976D01*
X47700Y35290D02*
X45959D01*
X75728Y3520D02*
X74204Y1996D01*
X75728Y3520D02*
Y37228D01*
X80000Y41500D02*
X75728Y37228D01*
X60539Y5730D02*
X59600D01*
X33000Y7000D02*
X32014D01*
X31989Y6975D01*
Y4561D02*
Y6975D01*
X21016Y15600D02*
X21000D01*
X41031Y15610D02*
Y17540D01*
X41451Y15190D02*
X41031Y15610D01*
X35235Y5700D02*
X33000D01*
X35885Y5050D02*
X35235Y5700D01*
X38900Y7650D02*
X35282D01*
X34632Y7000D01*
X23190Y39000D02*
Y40055D01*
X20000Y43245D01*
X21000Y14569D02*
X20975Y14543D01*
X19162D01*
X19137Y14569D01*
Y35771D01*
X18717Y36190D01*
X17380D01*
X55540Y58866D02*
Y59380D01*
X62460Y53456D02*
X57050Y58866D01*
X62460Y53000D02*
Y53456D01*
X53000Y15000D02*
Y20950D01*
X20000Y50992D02*
Y51000D01*
X15000Y55996D02*
Y61000D01*
X18650Y5000D02*
Y7072D01*
X19289Y7711D02*
X18650Y7072D01*
X19289Y7711D02*
Y12832D01*
X21000Y14543D02*
X19289Y12832D01*
X26270Y9920D02*
Y10400D01*
X46650Y41670D02*
Y50000D01*
X46680Y41640D02*
X46650Y41670D01*
X47700Y41640D02*
X46680D01*
X59600Y12080D02*
X56500D01*
X56043Y11623D01*
Y10454D02*
Y11623D01*
X34021Y7025D02*
X33996Y7000D01*
X34021Y7025D02*
Y8925D01*
X33996Y8950D01*
X45654Y41640D02*
X44384Y42910D01*
X65000Y4460D02*
Y5730D01*
D26*
X3600Y62600D02*
D03*
X3800Y3800D02*
D03*
X81200D02*
D03*
Y62300D02*
D03*
D27*
X25000Y51000D02*
D03*
X20000D02*
D03*
X22500D02*
D03*
X25000Y61000D02*
D03*
X22500D02*
D03*
X20000D02*
D03*
X12500Y51000D02*
D03*
X17500D02*
D03*
X15000D02*
D03*
X10000D02*
D03*
X7500D02*
D03*
X12500Y61000D02*
D03*
X10000D02*
D03*
X17500D02*
D03*
X15000D02*
D03*
D28*
X7500D02*
D03*
D29*
X80000Y41500D02*
D03*
Y44000D02*
D03*
Y33500D02*
D03*
Y36000D02*
D03*
Y25500D02*
D03*
Y28000D02*
D03*
D30*
X73000Y10000D02*
D03*
D31*
Y12500D02*
D03*
Y15000D02*
D03*
Y17500D02*
D03*
X80500Y10000D02*
D03*
Y12500D02*
D03*
Y15000D02*
D03*
Y17500D02*
D03*
D32*
X35518Y22925D02*
D03*
X29445Y36846D02*
D03*
X64402Y24950D02*
D03*
X61000Y10000D02*
D03*
X70300Y18100D02*
D03*
X25300Y22500D02*
D03*
X31300Y22200D02*
D03*
X32400Y22100D02*
D03*
X50200Y21500D02*
D03*
X10200Y16400D02*
D03*
X13800Y12300D02*
D03*
Y23400D02*
D03*
X14900Y23000D02*
D03*
X29300Y23800D02*
D03*
X28300Y19800D02*
D03*
X67000Y26075D02*
D03*
X68400Y37200D02*
D03*
X60000Y40000D02*
D03*
X53884Y29021D02*
D03*
X61900Y31200D02*
D03*
X39380Y17998D02*
D03*
X26080D02*
D03*
X63815Y41315D02*
D03*
X70080Y47580D02*
D03*
X38517Y17998D02*
D03*
X45502Y37810D02*
D03*
X58278Y33568D02*
D03*
X50252Y38546D02*
D03*
X54722Y41315D02*
D03*
X59228Y41000D02*
D03*
X36866Y23890D02*
D03*
X66508D02*
D03*
X13714Y19750D02*
D03*
X24810D02*
D03*
X36993Y22265D02*
D03*
X68743Y24500D02*
D03*
X38898Y13654D02*
D03*
X35342Y17210D02*
D03*
X24191Y7609D02*
D03*
X63064Y3621D02*
D03*
X39380Y60695D02*
D03*
X32700Y27091D02*
D03*
X43050Y28005D02*
D03*
X18552Y13781D02*
D03*
X25588D02*
D03*
X63764Y6441D02*
D03*
X25741Y29224D02*
D03*
X11440Y40375D02*
D03*
X57924Y40364D02*
D03*
X35189Y4739D02*
D03*
X40950Y20614D02*
D03*
X11999Y16347D02*
D03*
X54239Y21554D02*
D03*
X58950Y13770D02*
D03*
X12050Y26913D02*
D03*
X26401Y23078D02*
D03*
X33920Y57520D02*
D03*
X35850Y58180D02*
D03*
X26960Y40502D02*
D03*
X24344Y37759D02*
D03*
X27773Y30000D02*
D03*
X37094Y5983D02*
D03*
X66314Y20766D02*
D03*
X38900Y12308D02*
D03*
X40574D02*
D03*
X36078Y6707D02*
D03*
X42301Y31206D02*
D03*
X52106Y7507D02*
D03*
X58303D02*
D03*
X40371Y40642D02*
D03*
X19156Y39257D02*
D03*
X48397Y55310D02*
D03*
X67845D02*
D03*
X65111Y47335D02*
D03*
X24686Y41747D02*
D03*
X43114Y59882D02*
D03*
X53096Y56352D02*
D03*
X38339Y60670D02*
D03*
X46162Y36438D02*
D03*
X53477Y36870D02*
D03*
X47966Y45328D02*
D03*
X15463D02*
D03*
X21016Y19699D02*
D03*
X41031Y17540D02*
D03*
M02*
