G04*
G04 #@! TF.GenerationSoftware,Altium Limited,Altium Designer,20.2.7 (254)*
G04*
G04 Layer_Physical_Order=2*
G04 Layer_Color=16711680*
%FSLAX43Y43*%
%MOMM*%
G71*
G04*
G04 #@! TF.SameCoordinates,9B313DD2-682E-43CD-81FA-E857884732BC*
G04*
G04*
G04 #@! TF.FilePolarity,Positive*
G04*
G01*
G75*
%ADD24C,0.200*%
%ADD25C,0.300*%
%ADD26C,5.600*%
%ADD27O,1.200X2.500*%
%ADD28R,1.200X2.500*%
%ADD29C,1.300*%
%ADD30R,2.500X1.200*%
%ADD31O,2.500X1.200*%
%ADD32C,0.800*%
G36*
X-0Y0D02*
X85000D01*
Y66000D01*
X-0D01*
Y0D01*
D02*
G37*
%LPC*%
G36*
X3450Y65698D02*
Y62750D01*
X502D01*
X529Y63086D01*
X643Y63561D01*
X829Y64012D01*
X1084Y64428D01*
X1401Y64799D01*
X1772Y65116D01*
X2188Y65371D01*
X2639Y65557D01*
X3114Y65671D01*
X3450Y65698D01*
D02*
G37*
G36*
X3750D02*
X4086Y65671D01*
X4561Y65557D01*
X5012Y65371D01*
X5428Y65116D01*
X5799Y64799D01*
X6116Y64428D01*
X6371Y64012D01*
X6557Y63561D01*
X6671Y63086D01*
X6698Y62750D01*
X3750D01*
Y65698D01*
D02*
G37*
G36*
X81050Y65398D02*
Y62450D01*
X78102D01*
X78129Y62786D01*
X78243Y63261D01*
X78429Y63712D01*
X78684Y64128D01*
X79001Y64499D01*
X79372Y64816D01*
X79788Y65071D01*
X80239Y65257D01*
X80714Y65371D01*
X81050Y65398D01*
D02*
G37*
G36*
X81350D02*
X81686Y65371D01*
X82161Y65257D01*
X82612Y65071D01*
X83028Y64816D01*
X83399Y64499D01*
X83716Y64128D01*
X83971Y63712D01*
X84157Y63261D01*
X84271Y62786D01*
X84298Y62450D01*
X81350D01*
Y65398D01*
D02*
G37*
G36*
X39530Y61381D02*
X39563Y61377D01*
X39733Y61306D01*
X39880Y61194D01*
X39992Y61048D01*
X40062Y60878D01*
X40067Y60845D01*
X39530D01*
Y61381D01*
D02*
G37*
G36*
Y60545D02*
X40067D01*
X40062Y60512D01*
X39992Y60342D01*
X39880Y60196D01*
X39733Y60084D01*
X39563Y60013D01*
X39530Y60009D01*
Y60545D01*
D02*
G37*
G36*
X12525Y62779D02*
X36485D01*
X36582Y62759D01*
X36665Y62704D01*
X38172Y61197D01*
X38339Y61230D01*
X38554Y61188D01*
X38667Y61112D01*
X38738Y61068D01*
X38838Y61139D01*
X38881Y61194D01*
X39027Y61306D01*
X39198Y61377D01*
X39230Y61381D01*
Y60695D01*
Y60009D01*
X39198Y60013D01*
X39027Y60084D01*
X38881Y60196D01*
X38820Y60276D01*
X38736Y60273D01*
X38554Y60152D01*
X38339Y60109D01*
X38124Y60152D01*
X37942Y60273D01*
X37821Y60455D01*
X37778Y60670D01*
X37811Y60837D01*
X36379Y62269D01*
X25624D01*
X25568Y62142D01*
X25655Y62028D01*
X25731Y61846D01*
X25756Y61650D01*
Y60350D01*
X25731Y60154D01*
X25655Y59972D01*
X25535Y59815D01*
X25378Y59695D01*
X25196Y59619D01*
X25000Y59594D01*
X24804Y59619D01*
X24622Y59695D01*
X24465Y59815D01*
X24345Y59972D01*
X24269Y60154D01*
X24244Y60350D01*
Y61650D01*
X24269Y61846D01*
X24345Y62028D01*
X24432Y62142D01*
X24376Y62269D01*
X23124D01*
X23068Y62142D01*
X23155Y62028D01*
X23231Y61846D01*
X23256Y61650D01*
Y60350D01*
X23231Y60154D01*
X23155Y59972D01*
X23035Y59815D01*
X22878Y59695D01*
X22696Y59619D01*
X22500Y59594D01*
X22304Y59619D01*
X22122Y59695D01*
X21965Y59815D01*
X21845Y59972D01*
X21769Y60154D01*
X21744Y60350D01*
Y61650D01*
X21769Y61846D01*
X21845Y62028D01*
X21932Y62142D01*
X21876Y62269D01*
X20624D01*
X20568Y62142D01*
X20655Y62028D01*
X20731Y61846D01*
X20756Y61650D01*
Y60350D01*
X20731Y60154D01*
X20655Y59972D01*
X20535Y59815D01*
X20378Y59695D01*
X20196Y59619D01*
X20000Y59594D01*
X19804Y59619D01*
X19622Y59695D01*
X19465Y59815D01*
X19345Y59972D01*
X19269Y60154D01*
X19244Y60350D01*
Y61650D01*
X19269Y61846D01*
X19345Y62028D01*
X19432Y62142D01*
X19376Y62269D01*
X18124D01*
X18068Y62142D01*
X18155Y62028D01*
X18231Y61846D01*
X18256Y61650D01*
Y60350D01*
X18231Y60154D01*
X18155Y59972D01*
X18035Y59815D01*
X17878Y59695D01*
X17696Y59619D01*
X17500Y59594D01*
X17304Y59619D01*
X17122Y59695D01*
X16965Y59815D01*
X16845Y59972D01*
X16769Y60154D01*
X16743Y60350D01*
Y61650D01*
X16769Y61846D01*
X16845Y62028D01*
X16932Y62142D01*
X16876Y62269D01*
X15803D01*
X15747Y62155D01*
X15786Y62104D01*
X15877Y61885D01*
X15908Y61650D01*
Y61150D01*
X15000D01*
X14092D01*
Y61650D01*
X14123Y61885D01*
X14214Y62104D01*
X14253Y62155D01*
X14197Y62269D01*
X13124D01*
X13068Y62142D01*
X13155Y62028D01*
X13231Y61846D01*
X13256Y61650D01*
Y60350D01*
X13231Y60154D01*
X13155Y59972D01*
X13035Y59815D01*
X12878Y59695D01*
X12696Y59619D01*
X12500Y59594D01*
X12304Y59619D01*
X12122Y59695D01*
X11965Y59815D01*
X11845Y59972D01*
X11769Y60154D01*
X11744Y60350D01*
Y61650D01*
X11769Y61846D01*
X11845Y62028D01*
X11965Y62185D01*
X12122Y62305D01*
X12245Y62356D01*
Y62498D01*
X12264Y62596D01*
X12320Y62679D01*
X12345Y62704D01*
X12428Y62759D01*
X12525Y62779D01*
D02*
G37*
G36*
X502Y62450D02*
X3450D01*
Y59502D01*
X3114Y59529D01*
X2639Y59643D01*
X2188Y59829D01*
X1772Y60084D01*
X1401Y60401D01*
X1084Y60772D01*
X829Y61188D01*
X643Y61639D01*
X529Y62114D01*
X502Y62450D01*
D02*
G37*
G36*
X14092Y60850D02*
X14850D01*
Y59462D01*
X14765Y59473D01*
X14546Y59564D01*
X14358Y59708D01*
X14214Y59896D01*
X14123Y60115D01*
X14092Y60350D01*
Y60850D01*
D02*
G37*
G36*
X15150D02*
X15908D01*
Y60350D01*
X15877Y60115D01*
X15786Y59896D01*
X15642Y59708D01*
X15454Y59564D01*
X15235Y59473D01*
X15150Y59462D01*
Y60850D01*
D02*
G37*
G36*
X43114Y60443D02*
X43329Y60400D01*
X43511Y60279D01*
X43605Y60137D01*
X49566D01*
X49663Y60118D01*
X49746Y60062D01*
X52929Y56879D01*
X53096Y56912D01*
X53311Y56870D01*
X53493Y56748D01*
X53614Y56566D01*
X53657Y56352D01*
X53614Y56137D01*
X53493Y55955D01*
X53311Y55834D01*
X53096Y55791D01*
X52882Y55834D01*
X52700Y55955D01*
X52578Y56137D01*
X52536Y56352D01*
X52569Y56519D01*
X49460Y59627D01*
X43605D01*
X43511Y59486D01*
X43329Y59364D01*
X43114Y59321D01*
X42900Y59364D01*
X42718Y59486D01*
X42596Y59668D01*
X42553Y59882D01*
X42596Y60097D01*
X42718Y60279D01*
X42900Y60400D01*
X43114Y60443D01*
D02*
G37*
G36*
X78102Y62150D02*
X81050D01*
Y59202D01*
X80714Y59229D01*
X80239Y59343D01*
X79788Y59529D01*
X79372Y59784D01*
X79001Y60101D01*
X78684Y60472D01*
X78429Y60888D01*
X78243Y61339D01*
X78129Y61814D01*
X78102Y62150D01*
D02*
G37*
G36*
X81350D02*
X84298D01*
X84271Y61814D01*
X84157Y61339D01*
X83971Y60888D01*
X83716Y60472D01*
X83399Y60101D01*
X83028Y59784D01*
X82612Y59529D01*
X82161Y59343D01*
X81686Y59229D01*
X81350Y59202D01*
Y62150D01*
D02*
G37*
G36*
X3750Y62450D02*
X6766D01*
X6821Y62400D01*
X8250D01*
Y59600D01*
X7755D01*
Y57943D01*
X7923Y57775D01*
X33313D01*
X33327Y57799D01*
X33255Y57925D01*
X11321D01*
X11223Y57945D01*
X11141Y58000D01*
X9820Y59321D01*
X9765Y59404D01*
X9745Y59501D01*
Y59644D01*
X9622Y59695D01*
X9465Y59815D01*
X9345Y59972D01*
X9269Y60154D01*
X9244Y60350D01*
Y61650D01*
X9269Y61846D01*
X9345Y62028D01*
X9465Y62185D01*
X9622Y62305D01*
X9804Y62381D01*
X10000Y62406D01*
X10196Y62381D01*
X10378Y62305D01*
X10535Y62185D01*
X10655Y62028D01*
X10731Y61846D01*
X10756Y61650D01*
Y60350D01*
X10731Y60154D01*
X10655Y59972D01*
X10535Y59815D01*
X10378Y59695D01*
X10356Y59686D01*
X10326Y59536D01*
X11426Y58435D01*
X35359D01*
X35453Y58577D01*
X35635Y58698D01*
X35850Y58741D01*
X36064Y58698D01*
X36246Y58577D01*
X36368Y58395D01*
X36411Y58180D01*
X36368Y57966D01*
X36246Y57784D01*
X36064Y57662D01*
X35850Y57620D01*
X35635Y57662D01*
X35453Y57784D01*
X35359Y57925D01*
X34463D01*
X34395Y57799D01*
X34438Y57735D01*
X34481Y57520D01*
X34438Y57305D01*
X34317Y57123D01*
X34135Y57002D01*
X33920Y56959D01*
X33705Y57002D01*
X33523Y57123D01*
X33429Y57265D01*
X7817D01*
X7720Y57285D01*
X7637Y57340D01*
X7320Y57657D01*
X7265Y57740D01*
X7245Y57838D01*
Y59600D01*
X6750D01*
Y61897D01*
X6623Y61912D01*
X6557Y61639D01*
X6371Y61188D01*
X6116Y60772D01*
X5799Y60401D01*
X5428Y60084D01*
X5012Y59829D01*
X4561Y59643D01*
X4086Y59529D01*
X3750Y59502D01*
Y62450D01*
D02*
G37*
G36*
X48397Y55871D02*
X48612Y55828D01*
X48794Y55707D01*
X48889Y55565D01*
X67354D01*
X67448Y55707D01*
X67630Y55828D01*
X67845Y55871D01*
X68059Y55828D01*
X68241Y55707D01*
X68363Y55525D01*
X68406Y55310D01*
X68363Y55096D01*
X68241Y54914D01*
X68059Y54792D01*
X67845Y54749D01*
X67630Y54792D01*
X67448Y54914D01*
X67354Y55055D01*
X48889D01*
X48794Y54914D01*
X48612Y54792D01*
X48397Y54749D01*
X48183Y54792D01*
X48001Y54914D01*
X47879Y55096D01*
X47837Y55310D01*
X47879Y55525D01*
X48001Y55707D01*
X48183Y55828D01*
X48397Y55871D01*
D02*
G37*
G36*
X7500Y52406D02*
X7696Y52381D01*
X7878Y52305D01*
X8035Y52185D01*
X8155Y52028D01*
X8231Y51846D01*
X8256Y51650D01*
Y51255D01*
X9244D01*
Y51650D01*
X9269Y51846D01*
X9345Y52028D01*
X9465Y52185D01*
X9622Y52305D01*
X9804Y52381D01*
X10000Y52406D01*
X10196Y52381D01*
X10378Y52305D01*
X10535Y52185D01*
X10655Y52028D01*
X10731Y51846D01*
X10756Y51650D01*
Y50350D01*
X10731Y50154D01*
X10655Y49972D01*
X10535Y49815D01*
X10378Y49695D01*
X10255Y49644D01*
Y45934D01*
X15381Y40808D01*
X20501D01*
X20553Y40935D01*
X19590Y41898D01*
X15212D01*
X15115Y41918D01*
X15032Y41973D01*
X14588Y42417D01*
X14532Y42500D01*
X14513Y42597D01*
Y47331D01*
X14532Y47429D01*
X14588Y47511D01*
X14745Y47669D01*
Y49644D01*
X14622Y49695D01*
X14465Y49815D01*
X14345Y49972D01*
X14269Y50154D01*
X14244Y50350D01*
Y51650D01*
X14269Y51846D01*
X14345Y52028D01*
X14465Y52185D01*
X14622Y52305D01*
X14804Y52381D01*
X15000Y52406D01*
X15196Y52381D01*
X15378Y52305D01*
X15535Y52185D01*
X15655Y52028D01*
X15731Y51846D01*
X15756Y51650D01*
Y50350D01*
X15731Y50154D01*
X15655Y49972D01*
X15535Y49815D01*
X15378Y49695D01*
X15255Y49644D01*
Y47563D01*
X15235Y47466D01*
X15180Y47383D01*
X15023Y47225D01*
Y45848D01*
X15150Y45780D01*
X15248Y45846D01*
X15463Y45889D01*
X15678Y45846D01*
X15860Y45725D01*
X15954Y45583D01*
X47474D01*
X47569Y45725D01*
X47751Y45846D01*
X47966Y45889D01*
X48180Y45846D01*
X48362Y45725D01*
X48484Y45543D01*
X48526Y45328D01*
X48484Y45113D01*
X48362Y44931D01*
X48180Y44810D01*
X47966Y44767D01*
X47751Y44810D01*
X47569Y44931D01*
X47474Y45073D01*
X15954D01*
X15860Y44931D01*
X15678Y44810D01*
X15463Y44767D01*
X15248Y44810D01*
X15150Y44876D01*
X15023Y44808D01*
Y42703D01*
X15318Y42408D01*
X19695D01*
X19793Y42388D01*
X19876Y42333D01*
X20965Y41244D01*
X24238D01*
X24276Y41371D01*
X24168Y41532D01*
X24126Y41747D01*
X24168Y41961D01*
X24290Y42143D01*
X24472Y42265D01*
X24686Y42307D01*
X24854Y42274D01*
X25598Y43019D01*
X25681Y43074D01*
X25779Y43094D01*
X53702D01*
X58123Y47515D01*
X58206Y47570D01*
X58303Y47590D01*
X64619D01*
X64714Y47731D01*
X64896Y47853D01*
X65111Y47895D01*
X65325Y47853D01*
X65507Y47731D01*
X65629Y47549D01*
X65671Y47335D01*
X65629Y47120D01*
X65507Y46938D01*
X65325Y46817D01*
X65111Y46774D01*
X64896Y46817D01*
X64714Y46938D01*
X64619Y47080D01*
X58409D01*
X53988Y42659D01*
X53905Y42603D01*
X53808Y42584D01*
X25884D01*
X25214Y41914D01*
X25247Y41747D01*
X25205Y41532D01*
X25097Y41371D01*
X25135Y41244D01*
X26204D01*
X27106Y42145D01*
X27188Y42200D01*
X27286Y42220D01*
X61837D01*
X61934Y42200D01*
X62017Y42145D01*
X63311Y40851D01*
X63410Y40932D01*
X63361Y41004D01*
X63297Y41100D01*
X63254Y41315D01*
X63297Y41529D01*
X63419Y41711D01*
X63601Y41833D01*
X63815Y41876D01*
X63982Y41842D01*
X69552Y47413D01*
X69519Y47580D01*
X69562Y47794D01*
X69683Y47976D01*
X69865Y48098D01*
X70080Y48140D01*
X70295Y48098D01*
X70477Y47976D01*
X70598Y47794D01*
X70641Y47580D01*
X70598Y47365D01*
X70477Y47183D01*
X70295Y47062D01*
X70080Y47019D01*
X69913Y47052D01*
X64343Y41482D01*
X64376Y41315D01*
X64333Y41100D01*
X64212Y40918D01*
X64030Y40797D01*
X63815Y40754D01*
X63601Y40797D01*
X63432Y40909D01*
X63351Y40811D01*
X66707Y37455D01*
X67909D01*
X68003Y37597D01*
X68185Y37718D01*
X68400Y37761D01*
X68615Y37718D01*
X68797Y37597D01*
X68918Y37415D01*
X68961Y37200D01*
X68918Y36985D01*
X68797Y36803D01*
X68615Y36682D01*
X68400Y36639D01*
X68185Y36682D01*
X68003Y36803D01*
X67909Y36945D01*
X66601D01*
X66504Y36965D01*
X66421Y37020D01*
X61731Y41710D01*
X55254D01*
X55194Y41598D01*
X55240Y41529D01*
X55283Y41315D01*
X55311Y41280D01*
X58753D01*
X58831Y41397D01*
X59013Y41518D01*
X59228Y41561D01*
X59442Y41518D01*
X59624Y41397D01*
X59746Y41215D01*
X59789Y41000D01*
X59746Y40785D01*
X59624Y40603D01*
X59442Y40482D01*
X59228Y40439D01*
X59013Y40482D01*
X58831Y40603D01*
X58720Y40770D01*
X58466D01*
X58398Y40643D01*
X58442Y40578D01*
X58485Y40364D01*
X58442Y40149D01*
X58320Y39967D01*
X58138Y39846D01*
X57924Y39803D01*
X57709Y39846D01*
X57527Y39967D01*
X57433Y40109D01*
X41656D01*
X41558Y40128D01*
X41476Y40183D01*
X41054Y40605D01*
X40916Y40563D01*
X40889Y40427D01*
X40768Y40245D01*
X40586Y40124D01*
X40371Y40081D01*
X40204Y40114D01*
X39167Y39077D01*
X39084Y39022D01*
X38987Y39002D01*
X19647D01*
X19553Y38861D01*
X19371Y38739D01*
X19156Y38697D01*
X18941Y38739D01*
X18759Y38861D01*
X18638Y39043D01*
X18595Y39257D01*
X18638Y39472D01*
X18759Y39654D01*
X18941Y39775D01*
X19156Y39818D01*
X19371Y39775D01*
X19553Y39654D01*
X19647Y39512D01*
X26479D01*
X26518Y39639D01*
X26471Y39671D01*
X26194Y39948D01*
X15544D01*
X15495Y39831D01*
X25574Y29752D01*
X25741Y29785D01*
X25955Y29742D01*
X26137Y29621D01*
X26259Y29439D01*
X26301Y29224D01*
X26259Y29010D01*
X26137Y28828D01*
X25955Y28706D01*
X25741Y28664D01*
X25526Y28706D01*
X25344Y28828D01*
X25223Y29010D01*
X25180Y29224D01*
X25213Y29391D01*
X14657Y39948D01*
X11791D01*
X11655Y39857D01*
X11440Y39814D01*
X11226Y39857D01*
X11044Y39978D01*
X10922Y40160D01*
X10880Y40375D01*
X10922Y40590D01*
X11044Y40772D01*
X11226Y40893D01*
X11440Y40936D01*
X11655Y40893D01*
X11837Y40772D01*
X11932Y40630D01*
X14590D01*
X14705Y40734D01*
X14710Y40758D01*
X9820Y45648D01*
X9765Y45731D01*
X9745Y45829D01*
Y49644D01*
X9622Y49695D01*
X9465Y49815D01*
X9345Y49972D01*
X9269Y50154D01*
X9244Y50350D01*
Y50745D01*
X8256D01*
Y50350D01*
X8231Y50154D01*
X8155Y49972D01*
X8035Y49815D01*
X7878Y49695D01*
X7696Y49619D01*
X7500Y49594D01*
X7304Y49619D01*
X7122Y49695D01*
X6965Y49815D01*
X6845Y49972D01*
X6769Y50154D01*
X6744Y50350D01*
Y51650D01*
X6769Y51846D01*
X6845Y52028D01*
X6965Y52185D01*
X7122Y52305D01*
X7304Y52381D01*
X7500Y52406D01*
D02*
G37*
G36*
X19850Y52538D02*
Y51150D01*
X19092D01*
Y51650D01*
X19123Y51885D01*
X19214Y52104D01*
X19358Y52292D01*
X19546Y52436D01*
X19765Y52527D01*
X19850Y52538D01*
D02*
G37*
G36*
X20150D02*
X20235Y52527D01*
X20454Y52436D01*
X20642Y52292D01*
X20786Y52104D01*
X20877Y51885D01*
X20908Y51650D01*
Y51150D01*
X20150D01*
Y52538D01*
D02*
G37*
G36*
X12500Y52406D02*
X12696Y52381D01*
X12878Y52305D01*
X13035Y52185D01*
X13155Y52028D01*
X13231Y51846D01*
X13256Y51650D01*
Y50350D01*
X13231Y50154D01*
X13155Y49972D01*
X13035Y49815D01*
X12878Y49695D01*
X12696Y49619D01*
X12500Y49594D01*
X12304Y49619D01*
X12122Y49695D01*
X11965Y49815D01*
X11845Y49972D01*
X11769Y50154D01*
X11744Y50350D01*
Y51650D01*
X11769Y51846D01*
X11845Y52028D01*
X11965Y52185D01*
X12122Y52305D01*
X12304Y52381D01*
X12500Y52406D01*
D02*
G37*
G36*
X17500D02*
X17696Y52381D01*
X17878Y52305D01*
X18035Y52185D01*
X18155Y52028D01*
X18231Y51846D01*
X18256Y51650D01*
Y50350D01*
X18231Y50154D01*
X18155Y49972D01*
X18035Y49815D01*
X17878Y49695D01*
X17696Y49619D01*
X17500Y49594D01*
X17304Y49619D01*
X17122Y49695D01*
X16965Y49815D01*
X16845Y49972D01*
X16769Y50154D01*
X16743Y50350D01*
Y51650D01*
X16769Y51846D01*
X16845Y52028D01*
X16965Y52185D01*
X17122Y52305D01*
X17304Y52381D01*
X17500Y52406D01*
D02*
G37*
G36*
X22500D02*
X22696Y52381D01*
X22878Y52305D01*
X23035Y52185D01*
X23155Y52028D01*
X23231Y51846D01*
X23256Y51650D01*
Y50350D01*
X23231Y50154D01*
X23155Y49972D01*
X23035Y49815D01*
X22878Y49695D01*
X22696Y49619D01*
X22500Y49594D01*
X22304Y49619D01*
X22122Y49695D01*
X21965Y49815D01*
X21845Y49972D01*
X21769Y50154D01*
X21744Y50350D01*
Y51650D01*
X21769Y51846D01*
X21845Y52028D01*
X21965Y52185D01*
X22122Y52305D01*
X22304Y52381D01*
X22500Y52406D01*
D02*
G37*
G36*
X25000D02*
X25196Y52381D01*
X25378Y52305D01*
X25535Y52185D01*
X25655Y52028D01*
X25731Y51846D01*
X25756Y51650D01*
Y50350D01*
X25731Y50154D01*
X25655Y49972D01*
X25535Y49815D01*
X25378Y49695D01*
X25196Y49619D01*
X25000Y49594D01*
X24804Y49619D01*
X24622Y49695D01*
X24465Y49815D01*
X24345Y49972D01*
X24269Y50154D01*
X24244Y50350D01*
Y51650D01*
X24269Y51846D01*
X24345Y52028D01*
X24465Y52185D01*
X24622Y52305D01*
X24804Y52381D01*
X25000Y52406D01*
D02*
G37*
G36*
X19092Y50850D02*
X19850D01*
Y49462D01*
X19765Y49473D01*
X19546Y49564D01*
X19358Y49708D01*
X19214Y49896D01*
X19123Y50115D01*
X19092Y50350D01*
Y50850D01*
D02*
G37*
G36*
X20150D02*
X20908D01*
Y50350D01*
X20877Y50115D01*
X20786Y49896D01*
X20642Y49708D01*
X20454Y49564D01*
X20235Y49473D01*
X20150Y49462D01*
Y50850D01*
D02*
G37*
G36*
X79850Y44938D02*
Y44150D01*
X79062D01*
X79074Y44248D01*
X79170Y44479D01*
X79322Y44678D01*
X79521Y44830D01*
X79752Y44926D01*
X79850Y44938D01*
D02*
G37*
G36*
X80150D02*
X80248Y44926D01*
X80479Y44830D01*
X80678Y44678D01*
X80830Y44479D01*
X80926Y44248D01*
X80938Y44150D01*
X80150D01*
Y44938D01*
D02*
G37*
G36*
X79062Y43850D02*
X79850D01*
Y43062D01*
X79752Y43074D01*
X79521Y43170D01*
X79322Y43322D01*
X79170Y43521D01*
X79074Y43752D01*
X79062Y43850D01*
D02*
G37*
G36*
X80150D02*
X80938D01*
X80926Y43752D01*
X80830Y43521D01*
X80678Y43322D01*
X80479Y43170D01*
X80248Y43074D01*
X80150Y43062D01*
Y43850D01*
D02*
G37*
G36*
X60000Y40561D02*
X60215Y40518D01*
X60397Y40397D01*
X60518Y40215D01*
X60561Y40000D01*
X60518Y39785D01*
X60397Y39603D01*
X60215Y39482D01*
X60000Y39439D01*
X59833Y39472D01*
X58726Y38366D01*
X58644Y38311D01*
X58546Y38291D01*
X50743D01*
X50676Y38192D01*
X50732Y38064D01*
X54036D01*
X54134Y38045D01*
X54216Y37990D01*
X58111Y34095D01*
X58278Y34129D01*
X58493Y34086D01*
X58675Y33964D01*
X58796Y33782D01*
X58839Y33568D01*
X58796Y33353D01*
X58675Y33171D01*
X58493Y33050D01*
X58278Y33007D01*
X58063Y33050D01*
X57881Y33171D01*
X57760Y33353D01*
X57717Y33568D01*
X57750Y33735D01*
X53931Y37555D01*
X53504D01*
X53492Y37428D01*
X53692Y37388D01*
X53874Y37266D01*
X53995Y37084D01*
X54038Y36870D01*
X53995Y36655D01*
X53874Y36473D01*
X53692Y36352D01*
X53477Y36309D01*
X53310Y36342D01*
X53226Y36258D01*
X53143Y36203D01*
X53046Y36183D01*
X46653D01*
X46559Y36041D01*
X46377Y35920D01*
X46162Y35877D01*
X45948Y35920D01*
X45766Y36041D01*
X45644Y36223D01*
X45601Y36438D01*
X45644Y36653D01*
X45766Y36835D01*
X45948Y36956D01*
X46162Y36999D01*
X46377Y36956D01*
X46559Y36835D01*
X46653Y36693D01*
X52822D01*
X52927Y36820D01*
X52917Y36870D01*
X52959Y37084D01*
X53081Y37266D01*
X53263Y37388D01*
X53463Y37428D01*
X53450Y37555D01*
X45993D01*
X45898Y37413D01*
X45716Y37292D01*
X45502Y37249D01*
X45287Y37292D01*
X45105Y37413D01*
X44984Y37595D01*
X44941Y37810D01*
X44984Y38024D01*
X45105Y38206D01*
X45287Y38328D01*
X45502Y38370D01*
X45716Y38328D01*
X45898Y38206D01*
X45993Y38064D01*
X49771D01*
X49827Y38192D01*
X49734Y38332D01*
X49691Y38546D01*
X49734Y38761D01*
X49855Y38943D01*
X50037Y39064D01*
X50252Y39107D01*
X50466Y39064D01*
X50648Y38943D01*
X50743Y38801D01*
X58441D01*
X59472Y39833D01*
X59439Y40000D01*
X59482Y40215D01*
X59603Y40397D01*
X59785Y40518D01*
X60000Y40561D01*
D02*
G37*
G36*
X24344Y38320D02*
X24558Y38277D01*
X24740Y38155D01*
X24862Y37973D01*
X24904Y37759D01*
X24871Y37592D01*
X27953Y34510D01*
X28008Y34427D01*
X28027Y34330D01*
Y30491D01*
X28169Y30397D01*
X28291Y30215D01*
X28333Y30000D01*
X28291Y29785D01*
X28169Y29603D01*
X27987Y29482D01*
X27773Y29439D01*
X27558Y29482D01*
X27376Y29603D01*
X27255Y29785D01*
X27212Y30000D01*
X27255Y30215D01*
X27376Y30397D01*
X27518Y30491D01*
Y34224D01*
X24511Y37231D01*
X24344Y37198D01*
X24129Y37241D01*
X23947Y37362D01*
X23826Y37544D01*
X23783Y37759D01*
X23826Y37973D01*
X23947Y38155D01*
X24129Y38277D01*
X24344Y38320D01*
D02*
G37*
G36*
X80000Y36807D02*
X80209Y36779D01*
X80403Y36699D01*
X80571Y36571D01*
X80699Y36403D01*
X80779Y36209D01*
X80807Y36000D01*
X80779Y35791D01*
X80699Y35597D01*
X80571Y35429D01*
X80403Y35301D01*
X80209Y35221D01*
X80000Y35193D01*
X79791Y35221D01*
X79597Y35301D01*
X79429Y35429D01*
X79301Y35597D01*
X79221Y35791D01*
X79193Y36000D01*
X79221Y36209D01*
X79301Y36403D01*
X79429Y36571D01*
X79597Y36699D01*
X79791Y36779D01*
X80000Y36807D01*
D02*
G37*
G36*
Y34307D02*
X80209Y34279D01*
X80403Y34199D01*
X80571Y34071D01*
X80699Y33903D01*
X80779Y33709D01*
X80807Y33500D01*
X80779Y33291D01*
X80699Y33097D01*
X80571Y32929D01*
X80403Y32801D01*
X80209Y32721D01*
X80000Y32693D01*
X79791Y32721D01*
X79597Y32801D01*
X79429Y32929D01*
X79301Y33097D01*
X79221Y33291D01*
X79193Y33500D01*
X79221Y33709D01*
X79301Y33903D01*
X79429Y34071D01*
X79597Y34199D01*
X79791Y34279D01*
X80000Y34307D01*
D02*
G37*
G36*
X42301Y31766D02*
X42516Y31724D01*
X42698Y31602D01*
X42796Y31455D01*
X61409D01*
X61503Y31597D01*
X61685Y31718D01*
X61900Y31761D01*
X62115Y31718D01*
X62297Y31597D01*
X62418Y31415D01*
X62461Y31200D01*
X62418Y30985D01*
X62297Y30803D01*
X62115Y30682D01*
X61900Y30639D01*
X61685Y30682D01*
X61503Y30803D01*
X61409Y30945D01*
X42789D01*
X42698Y30809D01*
X42516Y30688D01*
X42301Y30645D01*
X42087Y30688D01*
X41905Y30809D01*
X41783Y30991D01*
X41741Y31206D01*
X41783Y31420D01*
X41905Y31602D01*
X42087Y31724D01*
X42301Y31766D01*
D02*
G37*
G36*
X80000Y42307D02*
X80209Y42279D01*
X80403Y42199D01*
X80571Y42071D01*
X80699Y41903D01*
X80779Y41709D01*
X80807Y41500D01*
X80779Y41291D01*
X80699Y41097D01*
X80571Y40929D01*
X80403Y40801D01*
X80306Y40761D01*
Y40418D01*
X80306Y40418D01*
X80283Y40301D01*
X80216Y40202D01*
X68819Y28805D01*
X68819Y28805D01*
X68720Y28739D01*
X68603Y28715D01*
X68603Y28715D01*
X54341D01*
X54280Y28625D01*
X54098Y28503D01*
X53884Y28460D01*
X53669Y28503D01*
X53487Y28625D01*
X53366Y28807D01*
X53323Y29021D01*
X53366Y29236D01*
X53487Y29418D01*
X53669Y29539D01*
X53884Y29582D01*
X54098Y29539D01*
X54280Y29418D01*
X54341Y29327D01*
X68476D01*
X79694Y40545D01*
Y40761D01*
X79597Y40801D01*
X79429Y40929D01*
X79301Y41097D01*
X79221Y41291D01*
X79193Y41500D01*
X79221Y41709D01*
X79301Y41903D01*
X79429Y42071D01*
X79597Y42199D01*
X79791Y42279D01*
X80000Y42307D01*
D02*
G37*
G36*
X42900Y28691D02*
Y28155D01*
X42364D01*
X42368Y28188D01*
X42439Y28358D01*
X42551Y28504D01*
X42697Y28617D01*
X42867Y28687D01*
X42900Y28691D01*
D02*
G37*
G36*
X43200D02*
X43233Y28687D01*
X43403Y28617D01*
X43549Y28504D01*
X43661Y28358D01*
X43732Y28188D01*
X43736Y28155D01*
X43200D01*
Y28691D01*
D02*
G37*
G36*
X42364Y27855D02*
X42900D01*
Y27319D01*
X42867Y27323D01*
X42697Y27394D01*
X42551Y27506D01*
X42439Y27652D01*
X42368Y27822D01*
X42364Y27855D01*
D02*
G37*
G36*
X43200D02*
X43736D01*
X43732Y27822D01*
X43661Y27652D01*
X43549Y27506D01*
X43403Y27394D01*
X43233Y27323D01*
X43200Y27319D01*
Y27855D01*
D02*
G37*
G36*
X32550Y27777D02*
Y27241D01*
X32014D01*
X32018Y27274D01*
X32089Y27444D01*
X32201Y27590D01*
X32347Y27702D01*
X32517Y27773D01*
X32550Y27777D01*
D02*
G37*
G36*
X32850D02*
X32883Y27773D01*
X33053Y27702D01*
X33199Y27590D01*
X33312Y27444D01*
X33382Y27274D01*
X33386Y27241D01*
X32850D01*
Y27777D01*
D02*
G37*
G36*
X80000Y28807D02*
X80209Y28779D01*
X80403Y28699D01*
X80571Y28571D01*
X80699Y28403D01*
X80779Y28209D01*
X80807Y28000D01*
X80779Y27791D01*
X80699Y27597D01*
X80571Y27429D01*
X80403Y27301D01*
X80209Y27221D01*
X80000Y27193D01*
X79791Y27221D01*
X79597Y27301D01*
X79429Y27429D01*
X79301Y27597D01*
X79221Y27791D01*
X79193Y28000D01*
X79221Y28209D01*
X79301Y28403D01*
X79429Y28571D01*
X79597Y28699D01*
X79791Y28779D01*
X80000Y28807D01*
D02*
G37*
G36*
X32014Y26941D02*
X32550D01*
Y26405D01*
X32517Y26409D01*
X32347Y26479D01*
X32201Y26592D01*
X32089Y26738D01*
X32018Y26908D01*
X32014Y26941D01*
D02*
G37*
G36*
X32850D02*
X33386D01*
X33382Y26908D01*
X33312Y26738D01*
X33199Y26592D01*
X33053Y26479D01*
X32883Y26409D01*
X32850Y26405D01*
Y26941D01*
D02*
G37*
G36*
X29445Y37407D02*
X29660Y37365D01*
X29842Y37243D01*
X29963Y37061D01*
X30006Y36846D01*
X29963Y36632D01*
X29842Y36450D01*
X29700Y36355D01*
Y33354D01*
X29756Y33298D01*
X29811Y33215D01*
X29831Y33117D01*
Y29682D01*
X29811Y29584D01*
X29756Y29501D01*
X26988Y26733D01*
X26905Y26678D01*
X26807Y26658D01*
X12541D01*
X12447Y26516D01*
X12265Y26395D01*
X12050Y26352D01*
X11835Y26395D01*
X11653Y26516D01*
X11532Y26698D01*
X11489Y26913D01*
X11532Y27128D01*
X11653Y27310D01*
X11835Y27431D01*
X12050Y27474D01*
X12265Y27431D01*
X12447Y27310D01*
X12541Y27168D01*
X26702D01*
X29321Y29787D01*
Y33012D01*
X29265Y33068D01*
X29210Y33151D01*
X29190Y33248D01*
Y36355D01*
X29049Y36450D01*
X28927Y36632D01*
X28884Y36846D01*
X28927Y37061D01*
X29049Y37243D01*
X29231Y37365D01*
X29445Y37407D01*
D02*
G37*
G36*
X67000Y26636D02*
X67215Y26593D01*
X67397Y26471D01*
X67518Y26289D01*
X67561Y26075D01*
X67518Y25860D01*
X67397Y25678D01*
X67255Y25584D01*
Y24779D01*
X67348Y24685D01*
X67403Y24603D01*
X67423Y24505D01*
Y23269D01*
X67431Y23262D01*
X67541Y23208D01*
X68354Y24021D01*
X68346Y24103D01*
X68225Y24285D01*
X68182Y24500D01*
X68225Y24715D01*
X68346Y24897D01*
X68528Y25018D01*
X68743Y25061D01*
X68957Y25018D01*
X69139Y24897D01*
X69261Y24715D01*
X69304Y24500D01*
X69261Y24285D01*
X69139Y24103D01*
X68988Y24003D01*
X68978Y23951D01*
X68923Y23869D01*
X67237Y22183D01*
X67154Y22127D01*
X67057Y22108D01*
X54628D01*
X54590Y21981D01*
X54636Y21950D01*
X54731Y21809D01*
X70237D01*
X74109Y25680D01*
X74192Y25735D01*
X74289Y25755D01*
X79240D01*
X79301Y25903D01*
X79429Y26071D01*
X79597Y26199D01*
X79791Y26279D01*
X80000Y26307D01*
X80209Y26279D01*
X80403Y26199D01*
X80571Y26071D01*
X80699Y25903D01*
X80779Y25709D01*
X80807Y25500D01*
X80779Y25291D01*
X80699Y25097D01*
X80571Y24929D01*
X80403Y24801D01*
X80209Y24721D01*
X80000Y24693D01*
X79791Y24721D01*
X79597Y24801D01*
X79429Y24929D01*
X79301Y25097D01*
X79240Y25245D01*
X74395D01*
X70523Y21373D01*
X70441Y21318D01*
X70343Y21299D01*
X66736D01*
X66697Y21172D01*
X66711Y21163D01*
X66832Y20981D01*
X66875Y20766D01*
X66832Y20552D01*
X66711Y20370D01*
X66529Y20248D01*
X66314Y20205D01*
X66100Y20248D01*
X65918Y20370D01*
X65823Y20511D01*
X41717D01*
X41708Y20513D01*
X41570Y20423D01*
X41559Y20365D01*
X50654Y11270D01*
X61476D01*
X61574Y11251D01*
X61656Y11195D01*
X62597Y10255D01*
X71600D01*
Y10750D01*
X74254D01*
Y11858D01*
X74127Y11920D01*
X74028Y11845D01*
X73846Y11769D01*
X73650Y11744D01*
X72350D01*
X72154Y11769D01*
X71972Y11845D01*
X71815Y11965D01*
X71695Y12122D01*
X71644Y12245D01*
X60220D01*
X60122Y12265D01*
X60040Y12320D01*
X59117Y13242D01*
X58950Y13209D01*
X58735Y13252D01*
X58553Y13373D01*
X58432Y13555D01*
X58389Y13770D01*
X58432Y13985D01*
X58553Y14167D01*
X58735Y14288D01*
X58950Y14331D01*
X59165Y14288D01*
X59347Y14167D01*
X59468Y13985D01*
X59511Y13770D01*
X59478Y13603D01*
X60326Y12755D01*
X71644D01*
X71695Y12878D01*
X71815Y13035D01*
X71972Y13155D01*
X72154Y13231D01*
X72350Y13256D01*
X73650D01*
X73846Y13231D01*
X74028Y13155D01*
X74127Y13080D01*
X74254Y13142D01*
Y14358D01*
X74127Y14420D01*
X74028Y14345D01*
X73846Y14269D01*
X73650Y14244D01*
X72350D01*
X72154Y14269D01*
X71972Y14345D01*
X71815Y14465D01*
X71695Y14622D01*
X71619Y14804D01*
X71594Y15000D01*
X71619Y15196D01*
X71695Y15378D01*
X71815Y15535D01*
X71972Y15655D01*
X72137Y15723D01*
X72191Y15848D01*
X70467Y17572D01*
X70300Y17539D01*
X70085Y17582D01*
X69903Y17703D01*
X69782Y17885D01*
X69739Y18100D01*
X69782Y18315D01*
X69903Y18497D01*
X70085Y18618D01*
X70300Y18661D01*
X70515Y18618D01*
X70697Y18497D01*
X70818Y18315D01*
X70861Y18100D01*
X70828Y17933D01*
X71502Y17259D01*
X71576Y17287D01*
X71617Y17323D01*
X71594Y17500D01*
X71619Y17696D01*
X71695Y17878D01*
X71815Y18035D01*
X71972Y18155D01*
X72154Y18231D01*
X72350Y18256D01*
X73650D01*
X73846Y18231D01*
X74028Y18155D01*
X74185Y18035D01*
X74305Y17878D01*
X74381Y17696D01*
X74406Y17500D01*
X74381Y17304D01*
X74305Y17122D01*
X74185Y16965D01*
X74028Y16845D01*
X73846Y16769D01*
X73650Y16744D01*
X72350D01*
X72173Y16767D01*
X72137Y16726D01*
X72108Y16652D01*
X72578Y16182D01*
X74191D01*
X74289Y16163D01*
X74371Y16108D01*
X74689Y15790D01*
X74744Y15708D01*
X74763Y15610D01*
Y9031D01*
X74744Y8934D01*
X74689Y8851D01*
X72098Y6260D01*
X72015Y6205D01*
X71918Y6186D01*
X64255D01*
X64160Y6044D01*
X63978Y5923D01*
X63764Y5880D01*
X63549Y5923D01*
X63367Y6044D01*
X63246Y6226D01*
X63203Y6441D01*
X63246Y6655D01*
X63367Y6837D01*
X63549Y6959D01*
X63764Y7001D01*
X63978Y6959D01*
X64160Y6837D01*
X64255Y6695D01*
X71812D01*
X74240Y9123D01*
X74220Y9250D01*
X71600D01*
Y9745D01*
X63133D01*
X58211Y4823D01*
X58129Y4768D01*
X58031Y4748D01*
X36978D01*
X36880Y4768D01*
X36798Y4823D01*
X36298Y5322D01*
X35535D01*
X35496Y5195D01*
X35586Y5135D01*
X35707Y4953D01*
X35750Y4739D01*
X35707Y4524D01*
X35586Y4342D01*
X35404Y4221D01*
X35189Y4178D01*
X34975Y4221D01*
X34793Y4342D01*
X34671Y4524D01*
X34629Y4739D01*
X34662Y4906D01*
X31547Y8020D01*
X24730D01*
X24663Y7893D01*
X24709Y7824D01*
X24752Y7609D01*
X24719Y7442D01*
X29306Y2855D01*
X61937D01*
X62536Y3454D01*
X62503Y3621D01*
X62545Y3836D01*
X62667Y4018D01*
X62849Y4139D01*
X63064Y4182D01*
X63278Y4139D01*
X63460Y4018D01*
X63582Y3836D01*
X63624Y3621D01*
X63582Y3407D01*
X63460Y3225D01*
X63278Y3103D01*
X63064Y3060D01*
X62896Y3094D01*
X62223Y2420D01*
X62140Y2365D01*
X62042Y2345D01*
X29200D01*
X29103Y2365D01*
X29020Y2420D01*
X24358Y7081D01*
X24191Y7048D01*
X23977Y7091D01*
X23795Y7212D01*
X23673Y7394D01*
X23630Y7609D01*
X23673Y7824D01*
X23720Y7893D01*
X23652Y8020D01*
X18267D01*
X18170Y8040D01*
X18087Y8095D01*
X14271Y11911D01*
X14197Y11903D01*
X14015Y11782D01*
X13800Y11739D01*
X13585Y11782D01*
X13403Y11903D01*
X13282Y12085D01*
X13239Y12300D01*
X13282Y12515D01*
X13403Y12697D01*
X13585Y12818D01*
X13800Y12861D01*
X14015Y12818D01*
X14197Y12697D01*
X14299Y12544D01*
X14340Y12535D01*
X14423Y12480D01*
X18373Y8530D01*
X31430D01*
X31479Y8648D01*
X26413Y13713D01*
X26279Y13668D01*
X26270Y13598D01*
X26200Y13428D01*
X26087Y13282D01*
X25941Y13170D01*
X25771Y13099D01*
X25738Y13095D01*
Y13781D01*
X25588D01*
Y13931D01*
X24902D01*
X24906Y13964D01*
X24977Y14134D01*
X25089Y14280D01*
X25235Y14393D01*
X25405Y14463D01*
X25475Y14472D01*
X25520Y14606D01*
X24035Y16092D01*
X12490D01*
X12396Y15950D01*
X12214Y15829D01*
X11999Y15786D01*
X11785Y15829D01*
X11603Y15950D01*
X11481Y16132D01*
X11438Y16347D01*
X11481Y16561D01*
X11603Y16743D01*
X11785Y16865D01*
X11999Y16907D01*
X12214Y16865D01*
X12396Y16743D01*
X12490Y16601D01*
X24140D01*
X24238Y16582D01*
X24321Y16527D01*
X24936Y15911D01*
X25054Y15960D01*
Y18887D01*
X25077Y19004D01*
X25143Y19103D01*
X26057Y20016D01*
X26113Y20054D01*
X26074Y20181D01*
X25336D01*
X25269Y20054D01*
X25328Y19965D01*
X25371Y19750D01*
X25328Y19536D01*
X25207Y19354D01*
X25025Y19232D01*
X24810Y19189D01*
X24643Y19223D01*
X24289Y18869D01*
X24207Y18814D01*
X24109Y18794D01*
X14415D01*
X14317Y18814D01*
X14234Y18869D01*
X13881Y19223D01*
X13714Y19189D01*
X13499Y19232D01*
X13317Y19354D01*
X13196Y19536D01*
X13153Y19750D01*
X13196Y19965D01*
X13317Y20147D01*
X13499Y20268D01*
X13714Y20311D01*
X13928Y20268D01*
X14110Y20147D01*
X14232Y19965D01*
X14274Y19750D01*
X14241Y19583D01*
X14520Y19304D01*
X20484D01*
X20544Y19416D01*
X20498Y19485D01*
X20455Y19699D01*
X20498Y19914D01*
X20620Y20096D01*
X20734Y20172D01*
X20800Y20271D01*
X20800Y20271D01*
X21232Y20703D01*
X21331Y20769D01*
X21448Y20793D01*
X21448Y20793D01*
X38085D01*
X38085Y20793D01*
X38202Y20769D01*
X38301Y20703D01*
X38301Y20703D01*
X38988Y20016D01*
X40924Y18080D01*
X41031Y18101D01*
X41246Y18058D01*
X41310Y18016D01*
X41437Y18084D01*
Y18781D01*
X40120Y20098D01*
X40065Y20181D01*
X40045Y20278D01*
Y20883D01*
X40065Y20981D01*
X40120Y21063D01*
X40298Y21242D01*
X40249Y21359D01*
X39845D01*
X39756Y21270D01*
X39673Y21215D01*
X39576Y21195D01*
X25431D01*
X25333Y21215D01*
X25251Y21270D01*
X24470Y22051D01*
X24414Y22133D01*
X24395Y22231D01*
Y22737D01*
X24386Y22745D01*
X15391D01*
X15297Y22603D01*
X15115Y22482D01*
X14900Y22439D01*
X14685Y22482D01*
X14503Y22603D01*
X14382Y22785D01*
X14341Y22991D01*
X14313Y23007D01*
X14216Y23033D01*
X14197Y23003D01*
X14015Y22882D01*
X13800Y22839D01*
X13585Y22882D01*
X13403Y23003D01*
X13282Y23185D01*
X13239Y23400D01*
X13282Y23615D01*
X13337Y23697D01*
X13238Y23778D01*
X10455Y20994D01*
Y16891D01*
X10597Y16797D01*
X10718Y16615D01*
X10761Y16400D01*
X10718Y16185D01*
X10597Y16003D01*
X10415Y15882D01*
X10200Y15839D01*
X9985Y15882D01*
X9803Y16003D01*
X9682Y16185D01*
X9639Y16400D01*
X9682Y16615D01*
X9803Y16797D01*
X9945Y16891D01*
Y21100D01*
X9965Y21198D01*
X10020Y21280D01*
X14620Y25880D01*
X14702Y25935D01*
X14800Y25955D01*
X63643D01*
X63741Y25935D01*
X63824Y25880D01*
X64228Y25476D01*
X64402Y25511D01*
X64616Y25468D01*
X64798Y25347D01*
X64920Y25165D01*
X64963Y24950D01*
X64920Y24735D01*
X64798Y24553D01*
X64616Y24432D01*
X64402Y24389D01*
X64187Y24432D01*
X64005Y24553D01*
X63884Y24735D01*
X63841Y24950D01*
X63873Y25110D01*
X63538Y25445D01*
X14906D01*
X13422Y23962D01*
X13503Y23863D01*
X13585Y23918D01*
X13800Y23961D01*
X13826Y23956D01*
X13829Y23961D01*
X14131Y24262D01*
X14214Y24317D01*
X14311Y24337D01*
X28856D01*
X28953Y24317D01*
X29019Y24274D01*
X29085Y24318D01*
X29300Y24361D01*
X29515Y24318D01*
X29697Y24197D01*
X29788Y24059D01*
X36339D01*
X36348Y24105D01*
X36469Y24287D01*
X36651Y24408D01*
X36866Y24451D01*
X37080Y24408D01*
X37262Y24287D01*
X37348Y24159D01*
X66026D01*
X66111Y24287D01*
X66293Y24408D01*
X66508Y24451D01*
X66722Y24408D01*
X66730Y24403D01*
X66820Y24493D01*
X66765Y24576D01*
X66745Y24673D01*
Y25584D01*
X66603Y25678D01*
X66482Y25860D01*
X66439Y26075D01*
X66482Y26289D01*
X66603Y26471D01*
X66785Y26593D01*
X67000Y26636D01*
D02*
G37*
G36*
X79850Y18256D02*
X81150D01*
X81346Y18231D01*
X81528Y18155D01*
X81685Y18035D01*
X81805Y17878D01*
X81881Y17696D01*
X81906Y17500D01*
X81881Y17304D01*
X81805Y17122D01*
X81685Y16965D01*
X81528Y16845D01*
X81346Y16769D01*
X81150Y16744D01*
X79850D01*
X79654Y16769D01*
X79472Y16845D01*
X79315Y16965D01*
X79195Y17122D01*
X79119Y17304D01*
X79094Y17500D01*
X79119Y17696D01*
X79195Y17878D01*
X79315Y18035D01*
X79472Y18155D01*
X79654Y18231D01*
X79850Y18256D01*
D02*
G37*
G36*
Y15756D02*
X81150D01*
X81346Y15731D01*
X81528Y15655D01*
X81685Y15535D01*
X81805Y15378D01*
X81881Y15196D01*
X81906Y15000D01*
X81881Y14804D01*
X81805Y14622D01*
X81685Y14465D01*
X81528Y14345D01*
X81346Y14269D01*
X81150Y14244D01*
X79850D01*
X79654Y14269D01*
X79472Y14345D01*
X79315Y14465D01*
X79195Y14622D01*
X79119Y14804D01*
X79094Y15000D01*
X79119Y15196D01*
X79195Y15378D01*
X79315Y15535D01*
X79472Y15655D01*
X79654Y15731D01*
X79850Y15756D01*
D02*
G37*
G36*
X18402Y14467D02*
Y13931D01*
X17866D01*
X17870Y13964D01*
X17941Y14134D01*
X18053Y14280D01*
X18199Y14393D01*
X18370Y14463D01*
X18402Y14467D01*
D02*
G37*
G36*
X18702D02*
X18735Y14463D01*
X18905Y14393D01*
X19052Y14280D01*
X19164Y14134D01*
X19234Y13964D01*
X19239Y13931D01*
X18702D01*
Y14467D01*
D02*
G37*
G36*
X17866Y13631D02*
X18402D01*
Y13095D01*
X18370Y13099D01*
X18199Y13170D01*
X18053Y13282D01*
X17941Y13428D01*
X17870Y13598D01*
X17866Y13631D01*
D02*
G37*
G36*
X18702D02*
X19239D01*
X19234Y13598D01*
X19164Y13428D01*
X19052Y13282D01*
X18905Y13170D01*
X18735Y13099D01*
X18702Y13095D01*
Y13631D01*
D02*
G37*
G36*
X24902D02*
X25438D01*
Y13095D01*
X25405Y13099D01*
X25235Y13170D01*
X25089Y13282D01*
X24977Y13428D01*
X24906Y13598D01*
X24902Y13631D01*
D02*
G37*
G36*
X79850Y13256D02*
X81150D01*
X81346Y13231D01*
X81528Y13155D01*
X81685Y13035D01*
X81805Y12878D01*
X81881Y12696D01*
X81906Y12500D01*
X81881Y12304D01*
X81805Y12122D01*
X81685Y11965D01*
X81528Y11845D01*
X81346Y11769D01*
X81150Y11744D01*
X79850D01*
X79654Y11769D01*
X79472Y11845D01*
X79315Y11965D01*
X79195Y12122D01*
X79119Y12304D01*
X79094Y12500D01*
X79119Y12696D01*
X79195Y12878D01*
X79315Y13035D01*
X79472Y13155D01*
X79654Y13231D01*
X79850Y13256D01*
D02*
G37*
G36*
Y10756D02*
X81150D01*
X81346Y10731D01*
X81528Y10655D01*
X81685Y10535D01*
X81805Y10378D01*
X81881Y10196D01*
X81906Y10000D01*
X81881Y9804D01*
X81805Y9622D01*
X81685Y9465D01*
X81528Y9345D01*
X81346Y9269D01*
X81150Y9244D01*
X79850D01*
X79654Y9269D01*
X79472Y9345D01*
X79315Y9465D01*
X79195Y9622D01*
X79119Y9804D01*
X79094Y10000D01*
X79119Y10196D01*
X79195Y10378D01*
X79315Y10535D01*
X79472Y10655D01*
X79654Y10731D01*
X79850Y10756D01*
D02*
G37*
G36*
X3650Y6898D02*
Y3950D01*
X702D01*
X729Y4286D01*
X843Y4761D01*
X1029Y5212D01*
X1284Y5628D01*
X1601Y5999D01*
X1972Y6316D01*
X2388Y6571D01*
X2839Y6757D01*
X3314Y6871D01*
X3650Y6898D01*
D02*
G37*
G36*
X3950D02*
X4286Y6871D01*
X4761Y6757D01*
X5212Y6571D01*
X5628Y6316D01*
X5999Y5999D01*
X6316Y5628D01*
X6571Y5212D01*
X6757Y4761D01*
X6871Y4286D01*
X6898Y3950D01*
X3950D01*
Y6898D01*
D02*
G37*
G36*
X81050D02*
Y3950D01*
X78102D01*
X78129Y4286D01*
X78243Y4761D01*
X78429Y5212D01*
X78684Y5628D01*
X79001Y5999D01*
X79372Y6316D01*
X79788Y6571D01*
X80239Y6757D01*
X80714Y6871D01*
X81050Y6898D01*
D02*
G37*
G36*
X81350D02*
X81686Y6871D01*
X82161Y6757D01*
X82612Y6571D01*
X83028Y6316D01*
X83399Y5999D01*
X83716Y5628D01*
X83971Y5212D01*
X84157Y4761D01*
X84271Y4286D01*
X84298Y3950D01*
X81350D01*
Y6898D01*
D02*
G37*
G36*
X702Y3650D02*
X3650D01*
Y702D01*
X3314Y729D01*
X2839Y843D01*
X2388Y1029D01*
X1972Y1284D01*
X1601Y1601D01*
X1284Y1972D01*
X1029Y2388D01*
X843Y2839D01*
X729Y3314D01*
X702Y3650D01*
D02*
G37*
G36*
X3950D02*
X6898D01*
X6871Y3314D01*
X6757Y2839D01*
X6571Y2388D01*
X6316Y1972D01*
X5999Y1601D01*
X5628Y1284D01*
X5212Y1029D01*
X4761Y843D01*
X4286Y729D01*
X3950Y702D01*
Y3650D01*
D02*
G37*
G36*
X78102D02*
X81050D01*
Y702D01*
X80714Y729D01*
X80239Y843D01*
X79788Y1029D01*
X79372Y1284D01*
X79001Y1601D01*
X78684Y1972D01*
X78429Y2388D01*
X78243Y2839D01*
X78129Y3314D01*
X78102Y3650D01*
D02*
G37*
G36*
X81350D02*
X84298D01*
X84271Y3314D01*
X84157Y2839D01*
X83971Y2388D01*
X83716Y1972D01*
X83399Y1601D01*
X83028Y1284D01*
X82612Y1029D01*
X82161Y843D01*
X81686Y729D01*
X81350Y702D01*
Y3650D01*
D02*
G37*
%LPD*%
D24*
X36780Y23804D02*
X29304D01*
X29576Y29682D02*
Y33117D01*
X14010Y23772D02*
X13800Y23562D01*
X14311Y24082D02*
X14010Y23780D01*
X29445Y33248D02*
Y36846D01*
X66508Y23890D02*
X66494Y23904D01*
X36880D02*
X36780Y23804D01*
X28856Y24082D02*
X14311D01*
X14010Y23772D02*
Y23780D01*
X29300Y23800D02*
X29138D01*
X66494Y23904D02*
X36880D01*
X29576Y33117D02*
X29445Y33248D01*
X66827Y22925D02*
X35518D01*
X29304Y23804D02*
X29300Y23800D01*
X13800Y23400D02*
Y23562D01*
X29138Y23800D02*
X28856Y24082D01*
X35518Y22950D02*
X28450D01*
X64323Y25029D02*
X64315D01*
X63643Y25700D01*
X64402Y24950D02*
X64323Y25029D01*
X14800Y25700D02*
X10200Y21100D01*
X63643Y25700D02*
X14800D01*
X63064Y3621D02*
X62042Y2600D01*
X29200D02*
X24191Y7609D01*
X62042Y2600D02*
X29200D01*
X61000Y10000D02*
X40075D01*
X39723Y10352D01*
X72472Y15927D02*
X70300Y18100D01*
X74191Y15927D02*
X72472D01*
X39740Y21614D02*
X39576Y21450D01*
X25431D01*
X24650Y22231D01*
Y22769D01*
X25031Y23150D02*
X24650Y22769D01*
X26329Y23150D02*
X25031D01*
X26401Y23078D02*
X26329Y23150D01*
X25113Y23728D02*
X24386Y23000D01*
X27672Y23728D02*
X25113D01*
X24386Y23000D02*
X14900D01*
X28450Y22950D02*
X27672Y23728D01*
X31300Y22200D02*
X25348D01*
X25283Y22265D01*
X36828Y22100D02*
X32400D01*
X36993Y22265D02*
X36828Y22100D01*
X50200Y21500D02*
X50086Y21614D01*
X41717Y20766D02*
X41219Y21264D01*
X66314Y20766D02*
X41717D01*
X40681Y21264D02*
X40300Y20883D01*
X41692Y18887D02*
X40300Y20278D01*
Y20883D01*
X50086Y21614D02*
X39740D01*
X41219Y21264D02*
X40681D01*
X10200Y16400D02*
Y21100D01*
X14242Y12300D02*
X13800D01*
X18267Y8275D02*
X14242Y12300D01*
X67168Y24505D02*
X67000Y24673D01*
X67168Y23266D02*
Y24505D01*
X67000Y24673D02*
Y26075D01*
X68400Y37200D02*
X66601D01*
X60000Y40000D02*
X58546Y38546D01*
X50252D01*
X60000Y40000D02*
X60000D01*
X61900Y31200D02*
X42307D01*
X42301Y31206D01*
X39380Y17998D02*
X38517D01*
X39723Y10352D02*
X36078Y6707D01*
X41692Y12321D02*
X39723Y10352D01*
X48936Y22265D02*
X36993D01*
X14762Y40203D02*
X11613D01*
X26299D02*
X14762D01*
X14590Y40375D01*
X25741Y29224D02*
X14762Y40203D01*
X70080Y47580D02*
X63815Y41315D01*
X38517Y17998D02*
X26080D01*
X54036Y37810D02*
X45502D01*
X58278Y33568D02*
X54036Y37810D01*
X55012Y41025D02*
X54722Y41315D01*
X59203Y41025D02*
X55012D01*
X59228Y41000D02*
X59203Y41025D01*
X67168Y23266D02*
X66827Y22925D01*
X14415Y19049D02*
X13714Y19750D01*
X24109Y19049D02*
X14415D01*
X24810Y19750D02*
X24109Y19049D01*
X49034Y22363D02*
X48936Y22265D01*
X67057Y22363D02*
X49034D01*
X68743Y24049D02*
X67057Y22363D01*
X68743Y24049D02*
Y24500D01*
X38898Y13654D02*
X35342Y17210D01*
X74509Y15610D02*
X74191Y15927D01*
X74509Y9031D02*
Y15610D01*
Y9031D02*
X71918Y6441D01*
X63764D01*
X14590Y40375D02*
X11440D01*
X11613Y40203D02*
X11440Y40375D01*
X26651Y39851D02*
X26299Y40203D01*
X38280Y39851D02*
X26651D01*
X39721Y41292D02*
X38280Y39851D01*
X40728Y41292D02*
X39721D01*
X41656Y40364D02*
X40728Y41292D01*
X57924Y40364D02*
X41656D01*
X31653Y8275D02*
X18267D01*
X35189Y4739D02*
X31653Y8275D01*
X73000Y10000D02*
X63028D01*
X62491D01*
X61476Y11015D01*
X50549D01*
X40950Y20614D01*
X24140Y16347D02*
X11999D01*
X34910Y5577D02*
X24140Y16347D01*
X36404Y5577D02*
X34910D01*
X36978Y5003D02*
X36404Y5577D01*
X58031Y5003D02*
X36978D01*
X63028Y10000D02*
X58031Y5003D01*
X70343Y21554D02*
X54239D01*
X74289Y25500D02*
X70343Y21554D01*
X80000Y25500D02*
X74289D01*
X73000Y12500D02*
X60220D01*
X58950Y13770D01*
X26807Y26913D02*
X12050D01*
X29576Y29682D02*
X26807Y26913D01*
X7500Y57838D02*
Y61000D01*
X7817Y57520D02*
X7500Y57838D01*
X33920Y57520D02*
X7817D01*
X10000Y59501D02*
Y61000D01*
X11321Y58180D02*
X10000Y59501D01*
X35850Y58180D02*
X11321D01*
X26960Y40502D02*
X26909Y40553D01*
X15276D01*
X10000Y45829D01*
Y51000D01*
X27773Y34330D02*
X24344Y37759D01*
X27773Y30000D02*
Y34330D01*
X15000Y47563D02*
Y51000D01*
Y47563D02*
X14768Y47331D01*
Y42597D02*
Y47331D01*
X15212Y42153D02*
X14768Y42597D01*
X19695Y42153D02*
X15212D01*
X20860Y40989D02*
X19695Y42153D01*
X26310Y40989D02*
X20860D01*
X27286Y41965D02*
X26310Y40989D01*
X61837Y41965D02*
X27286D01*
X66601Y37200D02*
X61837Y41965D01*
X41692Y12321D02*
Y18887D01*
X40574Y12308D02*
X38900D01*
X36078Y6707D02*
Y7999D01*
X26080Y17998D01*
X58303Y7507D02*
X52106D01*
X40371Y40642D02*
X38987Y39257D01*
X19156D01*
X67845Y55310D02*
X48397D01*
X65111Y47335D02*
X58303D01*
X53808Y42839D01*
X25779D01*
X24686Y41747D01*
X49566Y59882D02*
X43114D01*
X53096Y56352D02*
X49566Y59882D01*
X12500Y61000D02*
Y62498D01*
X12525Y62524D02*
X12500Y62498D01*
X36485Y62524D02*
X12525D01*
X38339Y60670D02*
X36485Y62524D01*
X53046Y36438D02*
X46162D01*
X53477Y36870D02*
X53046Y36438D01*
X47966Y45328D02*
X15463D01*
X10000Y51000D02*
X7500D01*
D25*
X26273Y19800D02*
X25360Y18887D01*
X38772Y19800D02*
X28300D01*
X38796Y19776D02*
X38772Y19800D01*
X28300D02*
X26273D01*
X25360Y15712D02*
Y18887D01*
X68603Y29021D02*
X53884D01*
X80000Y40418D02*
X68603Y29021D01*
X38796Y19776D02*
X38085Y20487D01*
X39380Y60695D02*
X33081Y54396D01*
X20368D01*
X20000Y54028D01*
Y51000D02*
Y54028D01*
X33615Y28005D02*
X32700Y27091D01*
X43050Y28005D02*
X33615D01*
X25588Y13781D02*
X18552D01*
X35088Y5983D02*
X25360Y15712D01*
X37094Y5983D02*
X35088D01*
X80000Y40418D02*
Y41500D01*
X21016Y19699D02*
Y20055D01*
X21448Y20487D02*
X21016Y20055D01*
X38085Y20487D02*
X21448D01*
X41031Y17540D02*
X38796Y19776D01*
D26*
X3600Y62600D02*
D03*
X3800Y3800D02*
D03*
X81200D02*
D03*
Y62300D02*
D03*
D27*
X25000Y51000D02*
D03*
X20000D02*
D03*
X22500D02*
D03*
X25000Y61000D02*
D03*
X22500D02*
D03*
X20000D02*
D03*
X12500Y51000D02*
D03*
X17500D02*
D03*
X15000D02*
D03*
X10000D02*
D03*
X7500D02*
D03*
X12500Y61000D02*
D03*
X10000D02*
D03*
X17500D02*
D03*
X15000D02*
D03*
D28*
X7500D02*
D03*
D29*
X80000Y41500D02*
D03*
Y44000D02*
D03*
Y33500D02*
D03*
Y36000D02*
D03*
Y25500D02*
D03*
Y28000D02*
D03*
D30*
X73000Y10000D02*
D03*
D31*
Y12500D02*
D03*
Y15000D02*
D03*
Y17500D02*
D03*
X80500Y10000D02*
D03*
Y12500D02*
D03*
Y15000D02*
D03*
Y17500D02*
D03*
D32*
X35518Y22925D02*
D03*
X29445Y36846D02*
D03*
X64402Y24950D02*
D03*
X61000Y10000D02*
D03*
X70300Y18100D02*
D03*
X25300Y22500D02*
D03*
X31300Y22200D02*
D03*
X32400Y22100D02*
D03*
X50200Y21500D02*
D03*
X10200Y16400D02*
D03*
X13800Y12300D02*
D03*
Y23400D02*
D03*
X14900Y23000D02*
D03*
X29300Y23800D02*
D03*
X28300Y19800D02*
D03*
X67000Y26075D02*
D03*
X68400Y37200D02*
D03*
X60000Y40000D02*
D03*
X53884Y29021D02*
D03*
X61900Y31200D02*
D03*
X39380Y17998D02*
D03*
X26080D02*
D03*
X63815Y41315D02*
D03*
X70080Y47580D02*
D03*
X38517Y17998D02*
D03*
X45502Y37810D02*
D03*
X58278Y33568D02*
D03*
X50252Y38546D02*
D03*
X54722Y41315D02*
D03*
X59228Y41000D02*
D03*
X36866Y23890D02*
D03*
X66508D02*
D03*
X13714Y19750D02*
D03*
X24810D02*
D03*
X36993Y22265D02*
D03*
X68743Y24500D02*
D03*
X38898Y13654D02*
D03*
X35342Y17210D02*
D03*
X24191Y7609D02*
D03*
X63064Y3621D02*
D03*
X39380Y60695D02*
D03*
X32700Y27091D02*
D03*
X43050Y28005D02*
D03*
X18552Y13781D02*
D03*
X25588D02*
D03*
X63764Y6441D02*
D03*
X25741Y29224D02*
D03*
X11440Y40375D02*
D03*
X57924Y40364D02*
D03*
X35189Y4739D02*
D03*
X40950Y20614D02*
D03*
X11999Y16347D02*
D03*
X54239Y21554D02*
D03*
X58950Y13770D02*
D03*
X12050Y26913D02*
D03*
X26401Y23078D02*
D03*
X33920Y57520D02*
D03*
X35850Y58180D02*
D03*
X26960Y40502D02*
D03*
X24344Y37759D02*
D03*
X27773Y30000D02*
D03*
X37094Y5983D02*
D03*
X66314Y20766D02*
D03*
X38900Y12308D02*
D03*
X40574D02*
D03*
X36078Y6707D02*
D03*
X42301Y31206D02*
D03*
X52106Y7507D02*
D03*
X58303D02*
D03*
X40371Y40642D02*
D03*
X19156Y39257D02*
D03*
X48397Y55310D02*
D03*
X67845D02*
D03*
X65111Y47335D02*
D03*
X24686Y41747D02*
D03*
X43114Y59882D02*
D03*
X53096Y56352D02*
D03*
X38339Y60670D02*
D03*
X46162Y36438D02*
D03*
X53477Y36870D02*
D03*
X47966Y45328D02*
D03*
X15463D02*
D03*
X21016Y19699D02*
D03*
X41031Y17540D02*
D03*
M02*
